<svg xmlns="http://www.w3.org/2000/svg" width="531" height="578" viewBox="0 0 531 578">
<g>
<path d="M 385.50,28.64 L 385.81,28.75 L 386.75,29.17 L 387.28,29.41 L 388.62,30.07 L 389.33,30.43 L 391.02,31.31 L 391.90,31.77 L 393.88,32.84 L 394.90,33.39 L 397.11,34.61 L 404.39,38.75 L 405.48,39.38 L 407.49,40.54 L 408.46,41.11 L 410.22,42.14 L 411.93,43.14 L 414.69,44.78 L 415.97,45.56 L 417.97,46.82 L 418.89,47.41 L 420.25,48.37 L 420.87,48.82 L 421.71,49.58 L 422.08,49.94 L 422.53,50.58 L 422.97,52.50 L 422.98,52.65 L 422.93,53.34 L 422.91,53.75 L 422.81,54.93 L 422.76,55.58 L 422.62,57.23 L 422.54,58.11 L 422.35,60.19 L 422.25,61.27 L 422.01,63.74 L 421.89,65.02 L 421.62,67.85 L 421.48,69.31 L 421.17,72.46 L 421.01,74.08 L 420.67,77.52 L 420.32,81.04 L 419.55,88.79 L 419.15,92.77 L 418.29,101.24 L 417.85,105.54 L 416.93,114.47 L 416.47,118.96 L 415.53,128.06 L 415.06,132.61 L 414.12,141.61 L 413.65,146.07 L 412.74,154.71 L 412.30,158.95 L 411.45,166.94 L 411.03,170.83 L 410.27,177.90 L 410.08,179.60 L 409.74,182.78 L 409.57,184.33 L 409.25,187.18 L 409.10,188.57 L 408.82,191.06 L 408.68,192.26 L 408.44,194.37 L 408.32,195.37 L 408.12,197.05 L 408.03,197.84 L 407.87,199.06 L 407.80,199.61 L 407.70,200.34 L 407.60,200.84 L 407.52,200.96 L 406.90,201.37 L 406.52,201.59 L 405.41,202.15 L 404.81,202.44 L 403.35,203.07 L 400.93,204.03 L 400.09,204.34 L 398.53,205.00 L 397.78,205.33 L 396.51,205.96 L 395.92,206.27 L 395.08,206.80 L 394.46,207.41 L 394.45,207.44 L 394.40,207.74 L 394.37,207.92 L 394.29,208.48 L 394.20,209.11 L 393.93,211.14 L 393.78,212.27 L 393.40,215.20 L 393.20,216.77 L 392.73,220.50 L 392.49,222.45 L 391.94,226.84 L 391.66,229.11 L 391.05,234.06 L 390.74,236.60 L 390.09,241.99 L 389.07,250.43 L 388.72,253.32 L 388.04,258.87 L 387.71,261.60 L 387.05,266.77 L 386.73,269.29 L 386.13,273.95 L 385.83,276.21 L 385.29,280.25 L 385.03,282.18 L 384.56,285.49 L 384.34,287.03 L 383.96,289.48 L 383.79,290.59 L 383.52,292.06 L 383.47,292.37 L 383.37,292.77 L 383.27,293.06 L 383.21,293.11 L 382.47,293.44 L 382.00,293.64 L 380.48,294.26 L 379.64,294.60 L 377.44,295.47 L 376.26,295.93 L 373.47,297.02 L 372.01,297.58 L 368.71,298.85 L 367.01,299.50 L 363.29,300.92 L 361.39,301.64 L 357.34,303.17 L 351.00,305.55 L 348.83,306.36 L 344.65,307.94 L 342.59,308.72 L 338.69,310.20 L 336.78,310.93 L 333.25,312.29 L 331.54,312.96 L 328.46,314.16 L 326.99,314.73 L 324.46,315.74 L 323.27,316.22 L 321.37,316.99 L 320.51,317.35 L 319.34,317.86 L 318.50,318.29 L 318.42,318.36 L 318.81,318.49 L 319.10,318.54 L 320.20,318.64 L 320.83,318.68 L 322.61,318.75 L 323.58,318.78 L 326.00,318.82 L 327.29,318.83 L 330.32,318.84 L 331.92,318.83 L 335.55,318.81 L 337.43,318.79 L 341.62,318.74 L 348.50,318.62 L 350.63,318.58 L 355.56,318.48 L 358.12,318.43 L 363.75,318.33 L 366.64,318.28 L 372.79,318.17 L 375.90,318.11 L 382.36,318.00 L 388.87,317.88 L 401.98,317.66 L 405.20,317.61 L 411.43,317.50 L 420.25,317.36 L 422.80,317.32 L 427.42,317.25 L 429.66,317.21 L 433.69,317.15 L 435.64,317.12 L 439.13,317.07 L 440.81,317.05 L 443.80,317.02 L 445.23,317.00 L 447.75,316.99 L 448.95,316.98 L 451.04,316.98 L 452.04,316.98 L 453.74,317.00 L 454.54,317.01 L 455.90,317.05 L 456.53,317.07 L 457.58,317.14 L 458.07,317.17 L 458.84,317.25 L 459.56,317.34 L 460.36,317.60 L 460.66,317.73 L 460.19,317.59 L 459.60,317.44 L 459.17,317.38 L 458.20,317.27 L 457.54,317.23 L 456.10,317.15 L 455.17,317.12 L 453.17,317.08 L 451.93,317.06 L 449.27,317.05 L 447.67,317.05 L 444.27,317.06 L 442.26,317.08 L 438.03,317.12 L 435.57,317.15 L 430.41,317.22 L 427.45,317.26 L 424.43,317.31 L 422.81,317.33 L 419.52,317.38 L 417.77,317.41 L 414.20,317.47 L 412.30,317.50 L 408.44,317.57 L 406.39,317.60 L 402.23,317.67 L 400.03,317.71 L 395.55,317.79 L 393.18,317.83 L 388.38,317.91 L 385.85,317.96 L 380.70,318.05 L 378.00,318.09 L 366.22,318.30 L 359.07,318.43 L 355.83,318.50 L 349.56,318.62 L 346.73,318.68 L 341.29,318.81 L 338.85,318.87 L 334.17,319.00 L 332.10,319.07 L 328.14,319.21 L 326.40,319.28 L 323.09,319.43 L 321.66,319.51 L 318.94,319.68 L 317.79,319.77 L 315.62,319.96 L 314.71,320.06 L 313.02,320.28 L 312.34,320.40 L 311.08,320.65 L 310.59,320.78 L 309.70,321.06 L 309.37,321.22 L 308.80,321.54 L 308.61,321.72 L 308.29,322.09 L 308.21,322.29 L 308.07,323.14 L 308.17,323.66 L 308.66,324.30 L 309.37,325.00 L 309.91,325.48 L 311.10,326.52 L 311.85,327.14 L 313.46,328.46 L 314.40,329.21 L 316.36,330.76 L 317.46,331.61 L 319.73,333.35 L 320.96,334.28 L 326.10,338.14 L 328.90,340.17 L 334.40,344.16 L 336.87,345.93 L 339.27,347.66 L 340.38,348.45 L 342.52,349.97 L 343.46,350.64 L 345.27,351.92 L 346.03,352.46 L 347.46,353.45 L 348.01,353.83 L 348.99,354.50 L 349.29,354.70 L 349.78,355.00 L 349.81,355.00 L 350.12,354.92 L 350.58,354.78 L 350.94,354.68 L 351.73,354.44 L 352.24,354.28 L 353.35,353.95 L 354.00,353.75 L 355.39,353.33 L 356.18,353.09 L 357.84,352.59 L 358.75,352.31 L 362.66,351.12 L 364.93,350.43 L 369.66,348.98 L 372.28,348.18 L 377.67,346.53 L 380.55,345.65 L 386.42,343.85 L 389.48,342.91 L 395.67,341.01 L 398.83,340.05 L 403.58,338.59 L 402.10,339.04 L 349.70,355.19 L 344.35,351.34 L 343.98,351.08 L 342.97,350.35 L 342.42,349.96 L 341.09,348.99 L 340.38,348.49 L 338.79,347.34 L 337.96,346.74 L 336.15,345.44 L 334.30,344.10 L 330.22,341.15 L 323.96,336.63 L 321.89,335.13 L 318.07,332.45 L 317.15,331.82 L 315.46,330.66 L 314.64,330.10 L 313.16,329.12 L 312.46,328.65 L 311.24,327.87 L 310.67,327.51 L 309.75,326.96 L 309.33,326.72 L 308.76,326.43 L 308.34,326.32 L 308.30,326.36 L 308.24,326.66 L 308.22,326.85 L 308.18,327.42 L 308.15,328.05 L 308.15,329.97 L 308.17,331.03 L 308.26,333.61 L 308.50,337.95 L 309.22,349.00 L 338.07,377.00 L 339.63,378.51 L 342.51,381.30 L 343.91,382.66 L 346.49,385.15 L 347.75,386.36 L 350.05,388.57 L 351.16,389.64 L 353.20,391.58 L 354.19,392.52 L 355.99,394.22 L 356.85,395.03 L 358.42,396.49 L 359.18,397.20 L 360.55,398.44 L 361.20,399.03 L 362.38,400.07 L 363.51,401.07 L 365.29,402.52 L 366.11,403.17 L 367.38,404.03 L 367.96,404.40 L 368.86,404.79 L 369.96,405.00 L 370.86,405.00 L 372.16,405.36 L 372.42,405.47 L 372.78,405.76 L 373.00,406.28 L 373.00,406.37 L 372.93,407.22 L 372.88,407.75 L 372.72,409.42 L 372.64,410.34 L 372.40,412.73 L 372.27,414.00 L 371.97,417.01 L 371.81,418.58 L 371.45,422.11 L 371.27,423.94 L 370.86,427.91 L 370.65,429.94 L 370.20,434.25 L 369.50,440.98 L 369.26,443.28 L 368.81,447.71 L 368.60,449.89 L 368.20,454.01 L 368.01,456.03 L 367.68,459.75 L 367.52,461.55 L 367.25,464.78 L 367.13,466.33 L 366.93,468.97 L 366.85,470.21 L 366.74,472.18 L 366.69,473.06 L 366.67,474.26 L 366.75,475.07 L 366.80,475.12 L 367.15,475.37 L 367.36,475.53 L 368.01,475.97 L 368.36,476.22 L 369.27,476.84 L 369.75,477.17 L 370.88,477.94 L 372.06,478.74 L 374.93,480.67 L 379.75,483.89 L 381.43,485.01 L 384.51,487.10 L 385.97,488.11 L 388.40,489.83 L 388.96,490.22 L 389.90,490.92 L 390.34,491.24 L 391.03,491.77 L 391.34,492.02 L 391.75,492.37 L 392.00,492.66 L 392.00,492.70 L 391.95,493.02 L 391.92,493.21 L 391.82,493.82 L 391.76,494.16 L 391.60,495.04 L 391.51,495.51 L 391.30,496.65 L 391.08,497.84 L 390.49,500.90 L 390.18,502.53 L 389.45,506.34 L 389.06,508.32 L 388.21,512.72 L 387.77,514.98 L 386.82,519.81 L 385.86,524.72 L 383.80,535.15 L 382.77,540.36 L 380.77,550.44 L 380.28,552.88 L 379.36,557.48 L 378.91,559.71 L 378.09,563.78 L 377.70,565.74 L 377.01,569.12 L 376.69,570.71 L 376.16,573.25 L 376.04,573.82 L 375.84,574.79 L 375.74,575.23 L 375.59,575.93 L 375.52,576.24 L 375.43,576.66 L 375.35,576.93 L 375.28,577.00 L 374.67,576.88 L 374.30,576.78 L 373.19,576.36 L 372.59,576.12 L 371.13,575.49 L 370.38,575.15 L 368.74,574.37 L 367.08,573.57 L 363.86,571.87 L 363.12,571.47 L 361.85,570.71 L 360.44,569.77 L 359.93,569.37 L 359.23,568.51 L 358.92,568.02 L 358.54,566.49 L 358.46,566.04 L 358.34,564.90 L 358.29,564.28 L 358.21,562.75 L 358.18,561.93 L 358.12,559.92 L 358.06,556.30 L 358.04,554.69 L 357.97,551.72 L 357.94,550.30 L 357.85,547.92 L 357.81,546.82 L 357.71,545.29 L 357.69,544.97 L 357.64,544.54 L 357.57,544.24 L 357.48,544.15 L 356.54,543.95 L 354.54,543.70 L 353.90,543.66 L 352.94,543.83 L 352.49,544.00 L 351.66,544.99 L 351.44,545.31 L 350.97,546.19 L 350.72,546.67 L 350.17,547.93 L 349.87,548.61 L 349.19,550.30 L 347.97,553.40 L 347.44,554.76 L 346.40,557.31 L 345.90,558.53 L 344.99,560.63 L 344.57,561.60 L 343.90,563.02 L 343.75,563.32 L 343.52,563.76 L 343.27,564.13 L 343.16,564.24 L 342.68,564.38 L 342.40,564.44 L 341.67,564.46 L 338.97,564.08 L 338.02,563.83 L 335.76,563.28 L 332.91,562.62 L 332.28,562.48 L 331.39,561.96 L 331.18,561.78 L 330.81,561.20 L 330.63,560.87 L 330.28,559.91 L 330.10,559.37 L 329.74,557.92 L 329.55,557.12 L 329.13,555.06 L 328.91,553.94 L 328.39,551.15 L 327.47,546.02 L 324.63,530.00 L 312.31,530.00 L 310.58,542.75 L 310.43,543.84 L 310.17,545.82 L 310.04,546.77 L 309.81,548.47 L 309.59,550.11 L 309.21,552.66 L 309.03,553.83 L 308.67,555.55 L 308.48,556.32 L 308.06,557.36 L 307.83,557.80 L 307.27,558.32 L 306.97,558.52 L 306.19,558.66 L 305.77,558.69 L 304.71,558.60 L 302.70,558.38 L 301.44,558.26 L 299.41,558.07 L 298.47,557.97 L 296.98,557.75 L 296.29,557.63 L 295.24,557.25 L 294.75,557.04 L 294.02,556.39 L 293.68,556.02 L 293.16,554.99 L 292.91,554.41 L 292.49,552.87 L 292.29,552.02 L 291.86,549.85 L 291.10,545.76 L 290.81,544.21 L 290.28,541.21 L 290.03,539.75 L 289.61,537.15 L 289.42,535.92 L 289.15,534.01 L 289.10,533.59 L 289.03,532.93 L 288.99,532.25 L 288.99,531.75 L 288.86,531.05 L 288.75,530.75 L 288.25,530.37 L 287.94,530.22 L 286.89,530.07 L 284.50,530.00 L 283.26,530.00 L 281.32,530.24 L 280.91,530.32 L 280.36,530.50 L 280.00,530.83 L 280.00,530.89 L 279.96,531.24 L 279.93,531.46 L 279.84,532.09 L 279.73,532.78 L 279.40,534.84 L 279.21,535.95 L 278.76,538.61 L 278.53,539.99 L 278.01,542.95 L 277.75,544.44 L 277.23,547.39 L 276.97,548.84 L 276.49,551.48 L 276.26,552.73 L 275.88,554.75 L 275.79,555.20 L 275.65,555.94 L 275.47,556.75 L 275.35,557.30 L 274.94,558.03 L 274.79,558.18 L 274.33,558.42 L 274.06,558.53 L 273.30,558.70 L 272.88,558.77 L 271.72,558.87 L 271.08,558.91 L 269.43,558.96 L 268.53,558.98 L 266.29,558.99 L 262.17,559.00 L 249.38,559.00 L 246.63,546.25 L 246.39,545.15 L 245.96,543.15 L 245.76,542.19 L 245.39,540.48 L 245.04,538.82 L 244.46,536.25 L 244.19,535.08 L 243.71,533.34 L 243.48,532.56 L 243.04,531.50 L 242.81,531.03 L 242.31,530.48 L 242.04,530.25 L 241.41,530.05 L 241.07,529.98 L 240.23,529.97 L 238.64,530.00 L 234.41,530.00 L 228.80,558.79 L 223.21,559.49 L 222.09,559.63 L 220.40,559.77 L 219.63,559.81 L 218.51,559.74 L 218.00,559.68 L 217.29,559.38 L 216.48,558.65 L 216.41,558.54 L 216.21,558.06 L 216.11,557.78 L 215.86,556.98 L 215.61,556.11 L 215.01,553.58 L 214.70,552.21 L 214.03,548.93 L 213.05,543.55 L 210.74,530.00 L 204.63,530.00 L 203.28,530.08 L 202.64,530.13 L 201.58,530.28 L 201.09,530.37 L 200.42,530.59 L 200.00,530.97 L 200.00,531.05 L 199.97,531.44 L 199.94,531.67 L 199.87,532.31 L 199.79,533.01 L 199.53,535.03 L 199.39,536.12 L 199.03,538.69 L 198.85,540.01 L 198.45,542.84 L 198.25,544.26 L 197.84,547.05 L 197.64,548.42 L 197.26,550.89 L 197.09,552.05 L 196.79,553.91 L 196.47,555.67 L 196.38,556.08 L 195.92,556.81 L 195.63,557.17 L 194.66,557.85 L 194.10,558.19 L 192.50,558.89 L 189.25,560.06 L 188.32,560.37 L 186.54,560.96 L 185.67,561.25 L 184.15,561.76 L 183.43,562.00 L 182.33,562.37 L 181.35,562.71 L 181.27,562.74 L 181.03,562.61 L 180.89,562.52 L 180.53,562.16 L 180.15,561.75 L 179.14,560.35 L 178.60,559.56 L 177.37,557.56 L 175.43,554.07 L 174.83,552.94 L 173.80,551.06 L 173.31,550.17 L 172.44,548.73 L 172.02,548.06 L 171.27,547.03 L 170.90,546.56 L 170.21,545.89 L 169.87,545.59 L 169.19,545.24 L 168.84,545.10 L 168.12,545.02 L 165.58,545.61 L 165.25,545.73 L 164.78,546.36 L 164.57,546.77 L 164.30,548.24 L 164.24,548.68 L 164.15,549.78 L 164.12,550.37 L 164.06,551.80 L 164.04,552.57 L 164.01,554.39 L 164.00,557.59 L 164.00,568.97 L 160.25,571.30 L 159.22,571.93 L 156.53,573.58 L 152.85,575.83 L 149.21,578.03 L 147.63,570.77 L 147.37,569.56 L 146.75,566.72 L 146.43,565.24 L 145.71,561.93 L 145.34,560.22 L 144.53,556.52 L 144.12,554.63 L 143.25,550.64 L 142.36,546.59 L 140.49,538.00 L 139.55,533.68 L 137.67,525.09 L 137.21,522.98 L 136.32,518.88 L 135.88,516.86 L 135.04,513.02 L 134.63,511.14 L 133.86,507.64 L 133.49,505.94 L 132.82,502.88 L 132.50,501.41 L 131.94,498.88 L 131.68,497.68 L 131.26,495.76 L 131.07,494.89 L 130.80,493.68 L 130.60,492.76 L 130.52,492.44 L 131.03,491.56 L 131.22,491.32 L 131.79,490.75 L 132.12,490.45 L 132.97,489.75 L 133.44,489.39 L 134.61,488.56 L 135.23,488.12 L 136.73,487.12 L 137.52,486.60 L 139.38,485.42 L 142.60,483.42 L 144.05,482.53 L 146.47,481.03 L 147.61,480.32 L 149.45,479.14 L 150.30,478.58 L 151.64,477.66 L 152.25,477.22 L 153.17,476.47 L 153.58,476.11 L 154.15,475.48 L 154.39,475.17 L 154.70,474.58 L 155.00,472.66 L 155.00,472.44 L 154.94,471.42 L 154.90,470.82 L 154.76,469.10 L 154.68,468.17 L 154.48,465.84 L 154.37,464.61 L 154.12,461.76 L 153.98,460.28 L 153.67,457.00 L 153.51,455.32 L 153.16,451.70 L 152.00,440.00 L 151.59,435.94 L 150.84,428.29 L 150.66,426.44 L 150.33,422.98 L 150.17,421.29 L 149.88,418.21 L 149.75,416.73 L 149.52,414.12 L 149.41,412.88 L 149.24,410.84 L 149.16,409.90 L 149.06,408.50 L 149.00,407.25 L 149.00,404.00 L 159.52,404.00 L 179.01,385.84 L 181.69,383.34 L 187.31,378.10 L 190.11,375.48 L 195.49,370.44 L 196.79,369.23 L 199.25,366.93 L 200.44,365.81 L 202.62,363.77 L 203.67,362.78 L 205.49,361.07 L 207.75,358.94 L 217.00,350.21 L 217.00,323.93 L 204.25,317.84 L 202.50,317.01 L 198.64,315.17 L 196.70,314.25 L 192.80,312.41 L 190.89,311.51 L 187.42,309.87 L 186.60,309.49 L 185.11,308.79 L 183.18,307.89 L 181.72,307.21 L 179.46,306.07 L 178.44,305.53 L 177.01,304.64 L 176.40,304.23 L 175.75,303.56 L 175.61,302.76 L 175.72,302.59 L 176.38,301.65 L 176.78,301.09 L 177.93,299.54 L 178.54,298.70 L 180.02,296.74 L 182.43,293.56 L 182.98,292.84 L 184.28,291.14 L 184.95,290.25 L 186.49,288.24 L 187.28,287.20 L 189.01,284.93 L 189.90,283.76 L 191.80,281.28 L 193.72,278.75 L 197.91,273.26 L 200.03,270.48 L 204.37,264.78 L 206.53,261.94 L 210.73,256.42 L 212.79,253.72 L 216.55,248.78 L 217.45,247.60 L 219.11,245.41 L 219.92,244.35 L 221.37,242.44 L 222.07,241.53 L 223.27,239.95 L 224.75,238.00 L 225.11,237.53 L 226.25,236.02 L 226.90,235.18 L 228.56,232.99 L 229.45,231.82 L 231.58,229.03 L 232.69,227.57 L 235.20,224.28 L 236.50,222.57 L 239.34,218.85 L 240.79,216.94 L 243.90,212.88 L 245.48,210.81 L 248.78,206.48 L 250.45,204.29 L 253.89,199.78 L 257.35,195.25 L 264.41,186.00 L 267.92,181.40 L 274.70,172.52 L 276.36,170.35 L 279.52,166.21 L 281.07,164.18 L 283.99,160.35 L 285.42,158.49 L 288.03,155.08 L 291.52,150.50 L 292.74,148.91 L 295.53,145.25 L 296.98,143.36 L 300.18,139.16 L 301.83,137.01 L 305.34,132.40 L 307.13,130.06 L 310.86,125.16 L 314.63,120.21 L 322.44,109.95 L 333.82,95.00 L 335.97,92.18 L 340.04,86.83 L 342.04,84.20 L 345.83,79.22 L 347.69,76.77 L 351.21,72.16 L 352.93,69.90 L 356.17,65.66 L 357.76,63.58 L 360.72,59.70 L 362.17,57.80 L 364.87,54.28 L 366.18,52.56 L 368.61,49.39 L 369.80,47.85 L 371.96,45.03 L 373.01,43.67 L 374.92,41.20 L 375.84,40.00 L 377.48,37.88 L 378.28,36.86 L 379.67,35.07 L 380.33,34.22 L 381.47,32.77 L 382.00,32.09 L 382.89,30.97 L 383.30,30.46 L 383.94,29.67 L 384.23,29.32 L 384.63,28.86 L 384.95,28.53 L 385.01,28.49 M 247.17,390.00 L 243.71,394.75 L 243.23,395.40 L 242.08,397.15 L 241.49,398.07 L 240.23,400.16 L 239.60,401.23 L 238.37,403.41 L 236.74,406.50 L 236.31,407.35 L 235.34,409.50 L 234.84,410.63 L 233.78,413.20 L 232.71,415.84 L 230.59,421.52 L 230.09,422.91 L 229.18,425.54 L 228.75,426.81 L 228.04,429.05 L 227.72,430.11 L 227.28,431.78 L 227.00,433.40 L 227.00,433.49 L 226.76,433.98 L 226.59,434.27 L 226.05,435.14 L 225.75,435.62 L 224.94,436.82 L 224.51,437.46 L 223.47,438.94 L 222.93,439.71 L 221.70,441.44 L 221.06,442.32 L 219.66,444.23 L 215.00,450.46 L 203.00,466.23 L 203.00,480.89 L 208.59,485.45 L 214.18,490.00 L 239.79,490.00 L 248.10,480.50 L 256.42,471.00 L 261.46,471.05 L 266.50,471.09 L 274.82,480.55 L 283.14,490.00 L 310.14,490.00 L 315.07,485.84 L 320.00,481.69 L 320.00,466.44 L 307.51,451.69 L 305.80,449.67 L 302.62,445.75 L 301.09,443.85 L 298.51,440.48 L 297.92,439.69 L 296.89,438.27 L 296.41,437.59 L 295.63,436.44 L 295.28,435.91 L 294.79,435.07 L 294.41,434.22 L 293.59,430.61 L 291.59,423.65 L 290.53,420.22 L 288.09,413.74 L 286.82,410.58 L 284.00,404.74 L 279.41,396.87 L 274.85,390.00 M 430.76,55.26 L 431.03,55.43 L 431.82,56.02 L 432.26,56.35 L 433.36,57.25 L 433.95,57.73 L 435.35,58.91 L 436.09,59.53 L 437.76,60.97 L 438.62,61.72 L 440.54,63.40 L 441.52,64.27 L 443.66,66.16 L 444.75,67.14 L 447.09,69.23 L 449.47,71.37 L 454.73,76.15 L 457.43,78.61 L 463.18,83.89 L 466.11,86.57 L 472.17,92.18 L 475.22,95.01 L 481.40,100.78 L 484.49,103.66 L 490.61,109.41 L 493.64,112.26 L 499.50,117.81 L 502.39,120.55 L 507.81,125.73 L 510.45,128.26 L 515.25,132.90 L 516.40,134.02 L 518.55,136.12 L 519.60,137.15 L 521.54,139.06 L 522.47,139.99 L 524.16,141.68 L 524.98,142.50 L 526.40,143.95 L 527.07,144.65 L 528.21,145.84 L 528.73,146.40 L 529.55,147.31 L 529.92,147.73 L 530.40,148.33 L 530.71,148.87 L 530.72,148.93 L 530.69,149.65 L 530.66,150.11 L 530.57,151.62 L 530.52,152.46 L 530.36,154.70 L 530.28,155.91 L 530.07,158.85 L 529.96,160.40 L 529.70,164.00 L 529.56,165.87 L 529.26,170.08 L 529.09,172.26 L 528.74,177.04 L 528.56,179.50 L 528.16,184.82 L 527.96,187.54 L 527.52,193.35 L 527.29,196.31 L 526.82,202.57 L 526.58,205.75 L 526.07,212.42 L 525.81,215.80 L 525.28,222.83 L 525.00,226.39 L 524.44,233.76 L 524.15,237.48 L 523.56,245.13 L 521.71,268.96 L 512.50,387.41 L 397.53,472.62 L 395.47,479.49 L 395.18,480.44 L 394.59,482.18 L 394.30,483.02 L 393.73,484.42 L 393.46,485.07 L 392.99,485.98 L 392.45,486.63 L 392.39,486.65 L 392.06,486.55 L 391.87,486.47 L 391.31,486.20 L 390.70,485.90 L 388.92,484.85 L 387.95,484.27 L 385.61,482.78 L 384.40,482.00 L 381.75,480.20 L 380.82,479.56 L 379.19,478.42 L 378.41,477.87 L 377.08,476.89 L 376.45,476.42 L 375.39,475.58 L 374.89,475.18 L 374.08,474.46 L 373.32,473.77 L 372.47,472.67 L 372.00,471.27 L 372.00,471.07 L 372.07,470.02 L 372.11,469.39 L 372.26,467.58 L 372.34,466.59 L 372.56,464.12 L 372.67,462.82 L 372.95,459.82 L 373.09,458.27 L 373.41,454.85 L 373.57,453.10 L 373.92,449.38 L 374.28,445.61 L 375.06,437.65 L 375.45,433.67 L 376.21,425.99 L 376.40,424.14 L 376.75,420.64 L 376.93,418.93 L 377.25,415.82 L 377.41,414.32 L 377.69,411.71 L 377.82,410.48 L 378.04,408.50 L 378.14,407.59 L 378.30,406.34 L 378.44,405.42 L 378.47,405.34 L 378.89,405.16 L 379.17,405.07 L 380.06,404.89 L 380.56,404.79 L 381.90,404.60 L 382.62,404.51 L 384.39,404.31 L 385.32,404.21 L 387.49,404.01 L 388.62,403.91 L 391.17,403.71 L 392.49,403.61 L 395.40,403.42 L 400.15,403.13 L 403.09,402.96 L 408.84,402.61 L 411.64,402.44 L 416.70,402.10 L 417.89,402.02 L 420.05,401.86 L 421.09,401.79 L 422.87,401.65 L 423.71,401.58 L 425.06,401.47 L 426.50,401.32 L 431.50,400.73 L 437.44,391.12 L 438.25,389.79 L 440.23,386.63 L 441.25,385.00 L 443.45,381.53 L 444.55,379.80 L 446.69,376.45 L 449.56,372.00 L 449.99,371.35 L 451.04,369.74 L 451.59,368.89 L 452.85,366.94 L 453.50,365.93 L 454.94,363.72 L 455.67,362.58 L 457.22,360.18 L 458.79,357.74 L 462.10,352.61 L 466.93,345.10 L 478.10,327.70 L 475.09,324.60 L 474.88,324.39 L 474.02,323.51 L 473.53,323.00 L 472.15,321.58 L 471.40,320.81 L 469.57,318.93 L 468.60,317.94 L 466.38,315.66 L 465.23,314.47 L 462.70,311.87 L 461.39,310.54 L 458.61,307.68 L 449.68,298.51 L 427.29,275.52 L 410.09,282.38 L 407.73,283.32 L 403.38,285.00 L 402.34,285.40 L 400.42,286.13 L 399.49,286.48 L 397.83,287.09 L 397.03,287.38 L 395.66,287.87 L 395.02,288.09 L 394.00,288.43 L 393.53,288.58 L 392.91,288.75 L 392.48,288.81 L 392.45,288.78 L 392.42,288.45 L 392.41,288.24 L 392.42,287.59 L 392.43,287.22 L 392.48,286.27 L 392.51,285.76 L 392.59,284.56 L 392.68,283.31 L 392.95,280.20 L 393.47,274.94 L 393.57,274.02 L 393.80,271.81 L 393.92,270.66 L 394.18,268.07 L 394.46,265.39 L 395.08,259.28 L 395.39,256.16 L 396.04,249.71 L 396.95,240.50 L 397.13,238.68 L 397.45,235.36 L 397.61,233.76 L 397.90,230.86 L 398.04,229.46 L 398.30,226.95 L 398.42,225.74 L 398.65,223.59 L 398.76,222.55 L 398.96,220.73 L 399.06,219.86 L 399.25,218.35 L 399.43,216.91 L 399.76,214.81 L 399.92,213.88 L 400.24,212.64 L 400.40,212.11 L 400.74,211.51 L 400.92,211.26 L 401.33,211.07 L 402.06,211.00 L 402.32,211.00 L 403.16,210.92 L 403.63,210.86 L 404.80,210.69 L 408.81,209.95 L 413.72,208.89 L 414.98,197.20 L 415.16,195.59 L 415.50,192.34 L 415.67,190.74 L 415.98,187.76 L 416.13,186.34 L 416.37,183.98 L 416.43,183.44 L 416.51,182.54 L 416.61,181.50 L 416.64,181.22 L 416.72,180.39 L 416.76,179.93 L 416.88,178.76 L 417.00,177.52 L 417.33,174.27 L 417.51,172.55 L 417.91,168.64 L 418.55,162.50 L 418.76,160.44 L 419.26,155.61 L 419.52,153.13 L 420.05,147.94 L 420.31,145.36 L 420.81,140.43 L 420.92,139.24 L 421.15,137.02 L 421.45,134.00 L 421.79,130.50 L 422.44,123.90 L 422.76,120.65 L 423.37,114.55 L 423.67,111.56 L 424.24,105.94 L 424.51,103.19 L 425.04,98.06 L 425.29,95.55 L 425.78,90.89 L 426.01,88.62 L 426.45,84.43 L 426.67,82.38 L 427.07,78.64 L 427.27,76.83 L 427.63,73.53 L 427.81,71.93 L 428.13,69.07 L 428.29,67.69 L 428.58,65.25 L 428.72,64.08 L 428.98,62.06 L 429.10,61.10 L 429.32,59.48 L 429.43,58.72 L 429.62,57.50 L 429.71,56.94 L 429.86,56.10 L 429.94,55.73 L 430.06,55.27 L 430.22,55.00 L 430.31,55.00 M 121.42,402.42 L 124.31,402.52 L 129.61,402.71 L 130.87,402.76 L 133.21,402.86 L 134.34,402.91 L 136.35,402.99 L 137.32,403.04 L 138.97,403.12 L 139.74,403.16 L 140.95,403.23 L 141.50,403.26 L 142.23,403.31 L 142.71,403.38 L 142.73,403.40 L 142.85,404.23 L 142.92,404.77 L 143.12,406.53 L 143.23,407.51 L 143.51,410.06 L 143.66,411.41 L 143.99,414.61 L 144.17,416.28 L 144.55,419.99 L 144.74,421.90 L 145.16,425.99 L 145.58,430.15 L 146.45,439.01 L 146.89,443.44 L 147.72,452.03 L 147.92,454.10 L 148.30,458.02 L 148.48,459.92 L 148.80,463.39 L 148.95,465.05 L 149.21,467.93 L 149.34,469.29 L 149.52,471.45 L 149.60,472.42 L 149.70,473.72 L 149.73,474.55 L 149.56,474.68 L 148.51,475.29 L 147.90,475.65 L 146.15,476.61 L 145.22,477.13 L 143.03,478.31 L 141.91,478.91 L 139.56,480.16 L 138.38,480.78 L 136.12,481.96 L 135.02,482.53 L 133.11,483.51 L 132.22,483.96 L 130.92,484.59 L 130.65,484.72 L 130.26,484.89 L 129.96,485.00 L 129.85,485.00 L 129.43,484.44 L 129.20,484.07 L 128.58,482.90 L 128.26,482.25 L 127.52,480.62 L 127.15,479.77 L 126.37,477.84 L 126.04,476.99 L 125.44,475.55 L 125.15,474.87 L 124.59,473.69 L 124.02,472.55 L 122.60,470.64 L 122.19,470.16 L 121.21,469.16 L 120.69,468.65 L 119.41,467.53 L 118.72,466.94 L 117.05,465.58 L 114.03,463.18 L 111.93,461.52 L 108.07,458.48 L 106.20,457.00 L 102.78,454.30 L 101.13,453.00 L 98.12,450.62 L 96.67,449.47 L 94.05,447.40 L 92.79,446.40 L 90.54,444.60 L 89.45,443.74 L 87.53,442.20 L 86.61,441.46 L 85.00,440.16 L 84.23,439.54 L 82.90,438.45 L 82.27,437.94 L 81.20,437.04 L 80.69,436.62 L 79.85,435.90 L 79.06,435.22 L 78.06,434.28 L 77.63,433.87 L 77.21,433.34 L 77.00,432.82 L 77.00,432.68 L 77.13,432.28 L 77.21,432.05 L 77.56,431.42 L 77.77,431.07 L 78.39,430.13 L 78.74,429.61 L 79.70,428.29 L 80.22,427.57 L 81.57,425.78 L 82.30,424.82 L 84.09,422.49 L 85.05,421.26 L 87.35,418.31 L 91.43,413.11 L 100.38,401.71 M 90.40,59.15 L 90.46,59.56 L 90.50,59.82 L 90.62,60.71 L 90.69,61.22 L 90.86,62.57 L 90.95,63.30 L 91.18,65.08 L 91.30,66.02 L 91.57,68.22 L 91.72,69.36 L 92.03,71.94 L 92.20,73.27 L 92.56,76.21 L 92.74,77.72 L 93.14,80.98 L 93.35,82.66 L 93.78,86.23 L 94.00,88.06 L 94.47,91.92 L 94.94,95.84 L 95.97,104.43 L 96.50,108.83 L 97.63,118.23 L 99.38,133.00 L 99.98,138.05 L 101.14,147.79 L 101.72,152.58 L 102.80,161.63 L 103.33,166.06 L 104.32,174.22 L 104.56,176.20 L 105.01,179.96 L 105.24,181.80 L 105.66,185.26 L 105.87,186.95 L 106.25,190.10 L 106.44,191.63 L 106.79,194.43 L 106.95,195.78 L 107.26,198.22 L 107.40,199.39 L 107.66,201.43 L 107.78,202.40 L 107.99,204.02 L 108.09,204.77 L 108.24,205.95 L 108.31,206.48 L 108.41,207.19 L 108.50,207.69 L 108.55,207.85 L 109.14,208.25 L 109.49,208.45 L 110.58,208.88 L 111.17,209.10 L 112.62,209.52 L 115.03,210.09 L 115.88,210.25 L 117.45,210.64 L 118.20,210.84 L 119.49,211.26 L 120.08,211.47 L 120.94,211.87 L 121.58,212.40 L 121.59,212.44 L 121.64,212.73 L 121.67,212.91 L 121.74,213.45 L 121.82,214.06 L 122.03,215.97 L 122.15,217.03 L 122.43,219.73 L 122.58,221.17 L 122.92,224.54 L 123.10,226.29 L 123.48,230.17 L 123.68,232.17 L 124.09,236.43 L 124.50,240.76 L 125.37,249.95 L 125.80,254.55 L 126.62,263.43 L 126.81,265.58 L 127.17,269.63 L 127.35,271.60 L 127.66,275.18 L 127.81,276.90 L 128.06,279.88 L 128.18,281.28 L 128.36,283.52 L 128.44,284.53 L 128.52,285.88 L 128.54,286.16 L 128.55,286.52 L 128.54,286.77 L 128.53,286.78 L 128.22,286.70 L 128.02,286.64 L 127.39,286.43 L 127.03,286.31 L 126.11,285.98 L 125.63,285.80 L 124.47,285.38 L 123.27,284.93 L 120.37,283.83 L 118.86,283.26 L 115.64,282.01 L 114.02,281.38 L 110.85,280.13 L 109.30,279.52 L 106.56,278.42 L 105.28,277.90 L 103.35,277.09 L 102.94,276.91 L 102.33,276.64 L 101.78,276.36 L 101.74,276.34 L 101.52,276.43 L 101.38,276.49 L 100.97,276.78 L 100.75,276.94 L 100.14,277.42 L 99.82,277.68 L 99.02,278.36 L 98.60,278.73 L 97.60,279.61 L 97.07,280.08 L 95.86,281.18 L 95.23,281.76 L 93.81,283.07 L 93.07,283.76 L 91.43,285.30 L 90.58,286.09 L 88.72,287.86 L 87.76,288.77 L 85.66,290.76 L 84.59,291.79 L 82.26,294.02 L 81.07,295.17 L 78.50,297.64 L 77.19,298.91 L 74.38,301.63 L 72.94,303.02 L 69.88,305.99 L 68.32,307.50 L 65.00,310.73 L 59.74,315.86 L 47.97,327.34 L 64.51,353.22 L 65.82,355.27 L 68.21,359.06 L 69.37,360.91 L 71.46,364.27 L 72.46,365.90 L 74.23,368.81 L 75.07,370.21 L 76.50,372.65 L 77.17,373.81 L 78.26,375.75 L 78.76,376.66 L 79.49,378.10 L 79.80,378.75 L 80.16,379.65 L 80.27,380.37 L 80.08,380.69 L 79.46,381.60 L 79.11,382.10 L 78.21,383.34 L 77.72,384.00 L 76.58,385.52 L 75.99,386.31 L 74.65,388.05 L 73.28,389.84 L 70.14,393.84 L 68.53,395.88 L 65.20,400.06 L 63.53,402.13 L 60.35,406.03 L 59.58,406.97 L 58.13,408.73 L 57.42,409.58 L 56.13,411.12 L 55.51,411.85 L 54.42,413.12 L 53.91,413.71 L 53.07,414.64 L 52.68,415.07 L 52.14,415.62 L 51.69,415.96 L 51.61,415.95 L 51.21,415.78 L 50.97,415.66 L 50.28,415.27 L 49.91,415.05 L 48.97,414.48 L 48.47,414.17 L 47.33,413.43 L 46.13,412.66 L 43.25,410.72 L 41.76,409.70 L 38.50,407.42 L 36.85,406.25 L 33.73,404.01 L 32.23,402.93 L 29.62,401.01 L 29.01,400.56 L 27.94,399.77 L 27.43,399.39 L 26.59,398.74 L 26.21,398.45 L 25.63,397.99 L 25.11,397.53 L 24.94,397.37 L 24.62,396.72 L 24.47,396.32 L 24.14,394.89 L 24.06,394.47 L 23.88,393.40 L 23.79,392.83 L 23.60,391.42 L 23.50,390.67 L 23.28,388.88 L 23.16,387.93 L 22.92,385.70 L 22.79,384.53 L 22.50,381.81 L 22.36,380.38 L 22.03,377.12 L 21.87,375.41 L 21.50,371.55 L 21.31,369.55 L 20.89,365.05 L 20.67,362.71 L 20.19,357.51 L 19.95,354.82 L 19.41,348.88 L 19.13,345.81 L 18.52,339.07 L 17.52,328.00 L 17.42,326.87 L 17.17,324.13 L 17.04,322.70 L 16.75,319.46 L 16.60,317.79 L 16.26,314.16 L 16.10,312.31 L 15.74,308.42 L 15.38,304.47 L 14.62,296.29 L 13.53,284.50 L 13.19,280.79 L 12.44,272.71 L 12.07,268.65 L 11.33,260.58 L 11.15,258.61 L 10.81,254.84 L 10.64,252.99 L 10.33,249.54 L 10.18,247.87 L 9.91,244.87 L 9.56,241.00 L 9.51,240.43 L 9.39,239.09 L 9.33,238.39 L 9.18,236.79 L 9.03,235.13 L 8.67,231.13 L 8.48,229.03 L 8.04,224.26 L 7.82,221.80 L 7.33,216.44 L 7.08,213.71 L 6.54,207.92 L 6.27,204.99 L 5.72,198.93 L 4.02,180.58 L 3.74,177.56 L 3.22,171.74 L 2.96,168.88 L 2.50,163.47 L 2.27,160.83 L 1.88,155.94 L 1.69,153.58 L 1.37,149.35 L 1.22,147.33 L 0.99,143.87 L 0.88,142.25 L 0.74,139.69 L 0.71,139.11 L 0.68,138.14 L 0.66,137.69 L 0.65,136.99 L 0.65,136.67 L 0.66,136.25 L 0.72,135.95 L 0.78,135.90 L 1.29,135.46 L 1.61,135.18 L 2.61,134.31 L 3.17,133.82 L 4.60,132.58 L 5.37,131.92 L 7.17,130.35 L 8.12,129.53 L 10.25,127.69 L 11.34,126.74 L 13.73,124.68 L 21.59,117.87 L 22.97,116.68 L 25.98,114.08 L 27.52,112.75 L 30.77,109.94 L 34.05,107.09 L 40.90,101.17 L 44.30,98.23 L 50.75,92.64 L 52.30,91.30 L 55.19,88.79 L 59.09,85.41 L 60.63,84.08 L 63.48,81.61 L 64.88,80.40 L 67.46,78.16 L 68.73,77.07 L 71.06,75.06 L 72.19,74.08 L 74.28,72.28 L 75.30,71.41 L 77.15,69.81 L 78.05,69.04 L 79.69,67.65 L 80.48,66.97 L 81.90,65.76 L 82.59,65.18 L 83.82,64.15 L 85.00,63.16 L 86.81,61.67 L 87.64,60.99 L 88.81,60.08 L 89.33,59.69 L 89.96,59.28 L 90.39,59.14 M 460.23,320.60 L 459.97,320.85 L 459.22,321.29 L 457.75,321.87 L 459.18,321.30 L 459.92,320.87 L 460.19,320.62 L 460.49,320.31 M 460.69,320.08 L 460.68,320.09 L 460.72,320.00 M 461.00,318.78 L 461.00,318.92 L 461.00,318.74 M 283.30,0.93 L 290.30,1.42 L 304.26,3.18 L 325.00,6.96 L 326.28,7.24 L 329.19,7.95 L 330.69,8.32 L 333.86,9.15 L 337.06,10.00 L 343.35,11.81 L 344.84,12.25 L 347.53,13.08 L 348.81,13.48 L 350.91,14.19 L 351.87,14.52 L 353.17,15.03 L 353.44,15.15 L 353.79,15.33 L 354.00,15.53 L 354.00,15.54 L 353.60,16.11 L 353.33,16.48 L 352.42,17.74 L 351.90,18.45 L 350.49,20.35 L 349.73,21.38 L 347.87,23.90 L 346.89,25.23 L 344.59,28.32 L 343.39,29.94 L 340.69,33.57 L 339.29,35.45 L 336.21,39.59 L 334.62,41.72 L 331.19,46.34 L 329.43,48.70 L 325.67,53.74 L 323.75,56.32 L 319.69,61.76 L 317.62,64.53 L 313.28,70.34 L 311.08,73.29 L 306.50,79.43 L 304.18,82.53 L 299.37,88.96 L 296.95,92.21 L 291.95,98.90 L 276.35,119.75 L 265.67,134.01 L 244.15,162.78 L 238.85,169.86 L 228.56,183.61 L 226.03,187.00 L 221.09,193.61 L 218.64,196.88 L 213.89,203.23 L 211.54,206.37 L 207.02,212.41 L 204.79,215.39 L 200.54,221.07 L 198.45,223.87 L 194.50,229.15 L 192.57,231.74 L 188.96,236.57 L 187.20,238.93 L 183.96,243.26 L 182.39,245.36 L 179.55,249.15 L 178.19,250.97 L 175.80,254.17 L 172.76,258.25 L 170.98,260.64 L 167.53,265.23 L 165.83,267.48 L 162.60,271.74 L 161.02,273.81 L 158.09,277.63 L 156.66,279.48 L 154.10,282.77 L 152.87,284.34 L 150.76,287.01 L 149.76,288.26 L 148.16,290.21 L 147.43,291.09 L 146.43,292.23 L 146.21,292.46 L 145.92,292.76 L 145.66,292.93 L 145.50,292.92 L 144.88,292.75 L 144.52,292.65 L 143.59,292.32 L 142.61,291.97 L 140.25,290.97 L 139.08,290.45 L 137.25,289.40 L 136.86,289.16 L 136.33,288.75 L 136.00,288.29 L 136.00,288.22 L 135.92,287.48 L 135.87,287.01 L 135.71,285.53 L 135.62,284.71 L 135.37,282.61 L 135.24,281.48 L 134.93,278.83 L 134.77,277.45 L 134.41,274.36 L 134.22,272.77 L 133.81,269.34 L 133.40,265.84 L 132.49,258.20 L 132.02,254.33 L 131.08,246.55 L 130.62,242.72 L 129.75,235.56 L 129.54,233.84 L 129.15,230.66 L 128.96,229.12 L 128.62,226.36 L 128.46,225.04 L 128.17,222.79 L 127.83,220.10 L 126.60,210.70 L 119.55,206.17 L 118.58,205.55 L 116.76,204.34 L 115.89,203.75 L 114.39,202.70 L 113.69,202.21 L 112.68,201.44 L 111.88,200.72 L 111.79,200.60 L 111.59,199.68 L 111.48,199.13 L 111.25,197.53 L 111.13,196.66 L 110.90,194.58 L 110.60,191.15 L 110.55,190.56 L 110.43,189.11 L 110.37,188.34 L 110.23,186.61 L 110.07,184.81 L 109.70,180.63 L 108.48,167.50 L 108.27,165.34 L 107.93,161.82 L 107.77,160.15 L 107.49,157.22 L 107.35,155.78 L 107.08,152.93 L 106.94,151.47 L 106.63,148.21 L 106.54,147.35 L 106.37,145.45 L 106.27,144.48 L 106.07,142.31 L 105.96,141.18 L 105.73,138.67 L 105.60,137.37 L 105.33,134.46 L 105.19,132.95 L 104.87,129.57 L 104.71,127.82 L 104.34,123.91 L 104.15,121.89 L 103.73,117.40 L 103.03,109.92 L 102.61,105.47 L 101.76,96.45 L 101.55,94.22 L 101.14,89.90 L 100.94,87.77 L 100.56,83.72 L 100.37,81.75 L 100.02,78.09 L 99.85,76.33 L 99.55,73.19 L 99.41,71.69 L 99.17,69.18 L 98.88,66.26 L 98.73,64.72 L 98.50,61.78 L 98.39,60.36 L 98.27,57.88 L 98.22,56.73 L 98.22,54.99 L 98.22,54.61 L 98.26,54.05 L 98.36,53.52 L 98.46,53.23 L 99.10,52.47 L 99.48,52.06 L 100.63,51.08 L 101.26,50.56 L 102.86,49.38 L 103.71,48.76 L 105.72,47.41 L 106.76,46.72 L 109.12,45.23 L 110.34,44.46 L 112.99,42.86 L 115.71,41.24 L 121.82,37.79 L 124.96,36.05 L 131.59,32.53 L 134.93,30.78 L 141.66,27.44 L 144.99,25.81 L 151.40,22.86 L 152.96,22.16 L 155.95,20.88 L 160.19,19.16 L 163.39,17.91 L 169.89,15.59 L 173.15,14.46 L 179.75,12.39 L 186.37,10.38 L 199.86,7.11 L 206.64,5.59 L 220.40,3.31 L 227.31,2.29 L 241.24,1.00 L 248.22,0.49 L 262.25,0.21 L 269.26,0.20 Z" fill="rgba(79,87,48,1)"/>
<path d="M 328.90,340.17 L 326.10,338.14 L 320.96,334.28 L 319.73,333.35 L 317.46,331.61 L 316.36,330.76 L 314.40,329.21 L 313.46,328.46 L 311.85,327.14 L 311.10,326.52 L 309.91,325.48 L 309.37,325.00 L 308.66,324.30 L 308.17,323.66 L 308.07,323.14 L 308.21,322.29 L 308.29,322.09 L 308.61,321.72 L 308.80,321.54 L 309.37,321.22 L 309.70,321.06 L 310.59,320.78 L 311.08,320.65 L 312.34,320.40 L 313.02,320.28 L 314.71,320.06 L 315.62,319.96 L 317.79,319.77 L 318.94,319.68 L 321.66,319.51 L 323.09,319.43 L 326.40,319.28 L 328.14,319.21 L 332.10,319.07 L 334.17,319.00 L 338.85,318.87 L 341.29,318.81 L 346.73,318.68 L 349.56,318.62 L 355.83,318.50 L 359.07,318.43 L 366.22,318.30 L 378.00,318.09 L 380.70,318.05 L 385.85,317.96 L 388.38,317.91 L 393.18,317.83 L 395.55,317.79 L 400.03,317.71 L 402.23,317.67 L 406.39,317.60 L 408.44,317.57 L 412.30,317.50 L 414.20,317.47 L 417.77,317.41 L 419.52,317.38 L 422.81,317.33 L 424.43,317.31 L 427.45,317.26 L 430.41,317.22 L 435.57,317.15 L 438.03,317.12 L 442.26,317.08 L 444.27,317.06 L 447.67,317.05 L 449.27,317.05 L 451.93,317.06 L 453.17,317.08 L 455.17,317.12 L 456.10,317.15 L 457.54,317.23 L 458.20,317.27 L 459.17,317.38 L 459.60,317.44 L 460.19,317.59 L 460.70,317.74 L 460.98,318.15 L 461.00,318.92 L 461.00,319.25 L 460.80,319.83 L 460.67,320.11 L 460.19,320.62 L 459.92,320.87 L 459.18,321.30 L 457.75,321.87 L 457.32,322.01 L 456.24,322.34 L 455.67,322.52 L 454.30,322.95 L 453.58,323.17 L 451.95,323.68 L 451.10,323.95 L 449.22,324.53 L 447.29,325.13 L 442.77,326.52 L 440.42,327.25 L 435.20,328.86 L 432.52,329.69 L 426.77,331.46 L 423.84,332.36 L 417.72,334.24 L 411.55,336.14 L 398.83,340.05 L 395.67,341.01 L 389.48,342.91 L 386.42,343.85 L 380.55,345.65 L 377.67,346.53 L 372.28,348.18 L 369.66,348.98 L 364.93,350.43 L 362.66,351.12 L 358.75,352.31 L 357.84,352.59 L 356.18,353.09 L 355.39,353.33 L 354.00,353.75 L 353.35,353.95 L 352.24,354.28 L 351.73,354.44 L 350.94,354.68 L 350.58,354.78 L 350.12,354.92 L 349.81,355.00 L 349.78,355.00 L 349.29,354.70 L 348.99,354.50 L 348.01,353.83 L 347.46,353.45 L 346.03,352.46 L 345.27,351.92 L 343.46,350.64 L 342.52,349.97 L 340.38,348.45 L 339.27,347.66 L 336.87,345.93 L 334.40,344.16 Z" fill="rgba(199,121,65,1)"/>
</g>
</svg>