<svg xmlns="http://www.w3.org/2000/svg" xmlns:xlink="http://www.w3.org/1999/xlink" 
	preserveAspectRatio="xMidYMid meet" width="100%" viewBox="0 0 400 400" style="paint-order:stroke fill">

<path d="
M196.788 
19.725 C 144.285 123.695,87.037 237.556,87.037 238.009 C 87.037 238.339,88.604 241.464,90.519 244.953 C 93.449 250.292,104.435 270.502,114.906 289.815 C 116.341 292.463,118.222 295.880,119.084 297.407 C 120.395 299.731,129.351 316.165,133.213 323.333 C 133.816 324.454,136.234 328.870,138.585 333.148 C 140.936 337.426,143.491 342.093,144.262 343.519 C 146.690 348.010,155.084 363.423,160.853 373.981 C 164.755 381.123,164.680 380.018,160.212 364.519 C 158.292 357.858,149.471 327.241,140.609 296.481 C 131.747 265.722,124.317 240.083,124.098 239.506 C 123.742 238.571,125.484 233.273,140.232 190.433 C 149.325 164.019,157.477 140.324,158.346 137.778 C 159.216 135.231,163.545 122.648,167.967 109.815 C 172.388 96.981,176.888 83.898,177.967 80.741 C 180.245 74.073,195.147 30.792,197.397 24.306 C 198.596 20.851,198.900 19.482,198.813 17.920 L 198.704 15.931 196.788 19.725 M201.196 18.333 C 201.324 20.526,202.476 24.179,208.672 42.037 C 212.700 53.648,217.797 68.398,219.999 74.815 C 222.200 81.231,227.618 96.981,232.037 109.815 C 236.456 122.648,240.784 135.231,241.654 137.778 C 242.523 140.324,250.675 164.019,259.768 190.433 C 274.516 233.273,276.258 238.571,275.902 239.506 C 275.683 240.083,268.253 265.722,259.391 296.481 C 250.529 327.241,241.708 357.858,239.788 364.519 C 235.320 380.018,235.245 381.123,239.147 373.981 C 244.916 363.423,253.310 348.010,255.738 343.519 C 256.509 342.093,259.064 337.426,261.415 333.148 C 263.766 328.870,266.184 324.454,266.787 323.333 C 270.649 316.165,279.605 299.731,280.916 297.407 C 281.778 295.880,283.659 292.463,285.094 289.815 C 295.565 270.502,306.551 250.292,309.481 244.953 C 311.396 241.464,312.963 238.338,312.963 238.006 C 312.963 237.450,201.852 16.644,201.211 15.926 C 201.120 15.824,201.113 16.907,201.196 18.333 M199.259 38.325 C 199.259 38.745,151.124 235.089,150.819 235.911 C 150.510 236.745,151.094 237.479,157.741 244.626 C 161.733 248.918,169.232 257.049,174.404 262.696 C 179.576 268.343,183.937 272.963,184.096 272.963 C 184.797 272.963,185.926 278.098,192.234 310.000 C 200.077 349.669,199.179 345.556,200.000 345.556 C 200.821 345.556,199.923 349.669,207.766 310.000 C 214.074 278.098,215.203 272.963,215.904 272.963 C 216.063 272.963,220.424 268.343,225.596 262.696 C 230.768 257.049,238.267 248.918,242.259 244.626 C 248.906 237.479,249.490 236.745,249.181 235.911 C 248.876 235.089,200.741 38.745,200.741 38.325 C 200.741 38.228,200.407 38.148,200.000 38.148 C 199.593 38.148,199.259 38.228,199.259 38.325 M70.998 274.888 C 48.953 319.328,42.963 331.659,42.963 332.604 C 42.963 333.221,47.403 342.692,53.839 355.805 L 64.714 377.963 99.209 378.057 L 133.704 378.152 133.704 377.234 C 133.704 375.941,78.377 262.806,77.676 262.666 C 77.274 262.585,75.395 266.025,70.998 274.888 M318.181 270.093 C 316.185 274.218,303.694 299.805,290.424 326.954 C 277.154 354.103,266.296 376.729,266.296 377.234 L 266.296 378.152 300.791 378.057 L 335.286 377.963 346.161 355.805 C 352.597 342.692,357.037 333.221,357.037 332.604 C 357.037 331.659,351.048 319.330,329.012 274.907 C 325.123 267.069,322.705 262.593,322.357 262.593 C 322.014 262.593,320.465 265.374,318.181 270.093 z"/>

</svg>
