<svg xmlns="http://www.w3.org/2000/svg" 
	preserveAspectRatio="xMidYMid meet" width="100%" viewBox="0 0 1080 1080" style="paint-order:stroke fill">

<g transform="translate(0,1080) scale(0.1,-0.1)">

<path d="
M5313 
    10267 c-1417 -2807 -2963 -5881 -2963 -5893 0 -9 42 -94 94
    -188 79 -144 376 -690 658 -1211 39 -71 90 -164 113 -205 36 -63 277 -506 382
    -700 16 -30 81 -149 145 -265 63 -115 132 -241 153 -280 66 -121 292 -537 448
    -822 105 -193 103 -163 -17 255 -52 180 -290 1007 -530 1837 -239 831 -439
    1523 -445 1538 -10 26 37 169 435 1325 246 713 466 1353 489 1422 24 69 141
    409 260 755 119 347 241 700 270 785 62 180 464 1349 525 1524 32 93 40 130
    38 172 l-3 54 -52 -103
z"/>
<path d="
M5432 
    10305 c4 -59 35 -158 202 -640 109 -313 247 -712 306 -885 59
    -173 206 -598 325 -945 119 -346 236 -686 260 -755 23 -69 243 -709 489 -1422
    398 -1156 445 -1299 435 -1325 -6 -15 -206 -707 -445 -1538 -240 -830 -478
    -1657 -530 -1837 -91 -315 -103 -368 -86 -368 4 0 35 51 69 112 156 286 382
    702 448 823 21 39 90 165 153 280 64 116 129 235 145 265 105 194 346 637 382
    700 23 41 74 134 113 205 282 521 579 1067 658 1211 52 94 94 179 94 188 0 15
    -3000 5977 -3017 5996 -3 3 -3 -26 -1 -65
z"/>
<path d="
M5380 
    9765 c0 -11 -1300 -5312 -1308 -5335 -8 -22 8 -42 187 -235
    108 -116 310 -335 450 -488 140 -152 257 -277 262 -277 19 0 49 -139 219
    -1000 100 -503 184 -925 187 -937 3 -13 13 -23 23 -23 10 0 20 10 23 23 3 12
    87 434 187 937 170 861 200 1000 219 1000 5 0 122 125 262 277 140 153 342
    372 450 488 179 193 195 213 187 235 -8 23 -1308 5324 -1308 5335 0 3 -9 5
    -20 5 -11 0 -20 -2 -20 -5
z"/>
<path d="
M1917 
    3378 c-595 -1200 -757 -1533 -757 -1558 0 -17 120 -273 294
    -627 l293 -598 932 -3 931 -2 0 25 c0 35 -1494 3089 -1513 3093 -11 2 -61 -91
    -180 -330
z"/>
<path d="
M8591 
    3508 c-54 -112 -391 -803 -750 -1536 -358 -733 -651 -1344
    -651 -1357 l0 -25 931 2 932 3 293 598 c174 354 294 610 294 627 0 25 -162
    358 -757 1558 -105 211 -170 332 -179 332 -10 0 -51 -75 -113 -202
z"/>

</g>
</svg>
