<svg version="1.1" xmlns="http://www.w3.org/2000/svg" xmlns:xlink="http://www.w3.org/1999/xlink" 
    preserveAspectRatio="xMidYMid meet" viewBox="0 0 640 640" width="100%" style="paint-order:stroke fill">

<path 
    d=
"M570.8 
    531.91L545.29 583.91L535.37 604.13L426 604.13L471.05 512.29L516.12 420.44L561.18 512.29L570.8 531.91ZM214 604.13L104.63 604.13L94.71 583.91L69.2 531.91L78.82 512.29L123.89 420.44L168.95 512.29L214 604.13ZM197.38 382.52L261.36 604.13L139.76 381.16L320 23.5L197.38 379.79L197.38 382.52ZM378.63 604.13L442.61 382.52L442.61 379.79L320 23.5L500.23 381.16L378.63 604.13ZM397.53 378.58L358.77 421.44L343.06 438.81L332.27 492.06L320.01 552.55L307.74 492.07L296.94 438.8L281.24 421.45L242.47 378.6L397.53 378.58L242.47 378.58L281.23 220.15L320 61.71L358.76 220.15L397.53 378.58
    z"/>

</svg>