<svg id="svg" version="1.1" xmlns="http://www.w3.org/2000/svg" xmlns:xlink="http://www.w3.org/1999/xlink" width="400" height="400" viewBox="0, 0, 400,400"><g id="svgg"><path id="path0" d="M68.000 67.800 L 43.403 92.400 64.000 113.000 C 75.328 124.330,84.777 133.600,84.997 133.600 C 85.217 133.600,96.406 122.592,109.862 109.138 L 134.326 84.677 113.580 63.938 C 102.171 52.532,92.782 43.200,92.716 43.200 C 92.651 43.200,81.529 54.270,68.000 67.800 M157.857 95.876 C 157.245 96.488,157.710 96.800,159.233 96.800 C 160.348 96.800,160.815 96.644,160.703 96.308 C 160.528 95.784,158.289 95.444,157.857 95.876 M161.431 95.903 C 160.845 96.488,161.333 96.800,162.833 96.800 C 163.962 96.800,164.415 96.645,164.301 96.300 C 164.133 95.794,161.855 95.478,161.431 95.903 M164.800 96.200 C 164.800 96.530,164.980 96.800,165.200 96.800 C 165.420 96.800,165.600 96.530,165.600 96.200 C 165.600 95.870,165.420 95.600,165.200 95.600 C 164.980 95.600,164.800 95.870,164.800 96.200 M166.400 96.200 C 166.400 96.528,166.918 96.720,167.800 96.720 C 168.682 96.720,169.200 96.528,169.200 96.200 C 169.200 95.872,168.682 95.680,167.800 95.680 C 166.918 95.680,166.400 95.872,166.400 96.200 M169.857 95.876 C 169.245 96.488,169.710 96.800,171.233 96.800 C 172.348 96.800,172.815 96.644,172.703 96.308 C 172.528 95.784,170.289 95.444,169.857 95.876 M173.456 95.878 C 173.005 96.328,173.181 96.800,173.800 96.800 C 174.130 96.800,174.400 96.631,174.400 96.424 C 174.400 95.919,173.775 95.558,173.456 95.878 M174.800 96.171 C 174.800 96.542,175.142 96.800,175.633 96.800 C 176.608 96.800,176.470 95.865,175.467 95.671 C 175.072 95.594,174.800 95.798,174.800 96.171 M176.800 96.200 C 176.800 96.530,176.980 96.800,177.200 96.800 C 177.420 96.800,177.600 96.530,177.600 96.200 C 177.600 95.870,177.420 95.600,177.200 95.600 C 176.980 95.600,176.800 95.870,176.800 96.200 M178.400 96.200 C 178.400 96.528,178.918 96.720,179.800 96.720 C 180.682 96.720,181.200 96.528,181.200 96.200 C 181.200 95.872,180.682 95.680,179.800 95.680 C 178.918 95.680,178.400 95.872,178.400 96.200 M181.856 95.878 C 181.405 96.328,181.581 96.800,182.200 96.800 C 182.530 96.800,182.800 96.631,182.800 96.424 C 182.800 95.919,182.175 95.558,181.856 95.878 M183.475 95.858 C 182.953 96.380,183.202 96.800,184.033 96.800 C 184.499 96.800,184.797 96.590,184.708 96.325 C 184.513 95.740,183.846 95.488,183.475 95.858 M185.456 95.878 C 185.005 96.328,185.181 96.800,185.800 96.800 C 186.130 96.800,186.400 96.631,186.400 96.424 C 186.400 95.919,185.775 95.558,185.456 95.878 M186.800 96.171 C 186.800 96.542,187.142 96.800,187.633 96.800 C 188.608 96.800,188.470 95.865,187.467 95.671 C 187.072 95.594,186.800 95.798,186.800 96.171 M188.800 96.200 C 188.800 96.530,188.980 96.800,189.200 96.800 C 189.420 96.800,189.600 96.530,189.600 96.200 C 189.600 95.870,189.420 95.600,189.200 95.600 C 188.980 95.600,188.800 95.870,188.800 96.200 M190.400 96.200 C 190.400 96.619,190.822 96.800,191.800 96.800 C 192.778 96.800,193.200 96.619,193.200 96.200 C 193.200 95.480,192.347 95.413,191.680 96.080 C 191.307 96.453,191.200 96.453,191.200 96.080 C 191.200 95.816,191.020 95.600,190.800 95.600 C 190.580 95.600,190.400 95.870,190.400 96.200 M193.856 95.878 C 193.405 96.328,193.581 96.800,194.200 96.800 C 194.530 96.800,194.800 96.631,194.800 96.424 C 194.800 95.919,194.175 95.558,193.856 95.878 M195.384 96.027 C 194.955 96.720,195.471 96.913,196.992 96.628 C 197.791 96.478,198.313 96.183,198.176 95.960 C 198.014 95.700,197.745 95.714,197.400 96.000 C 197.034 96.304,196.791 96.310,196.612 96.019 C 196.279 95.480,195.719 95.483,195.384 96.027 M198.800 96.240 C 198.800 96.613,199.267 96.800,200.200 96.800 C 201.133 96.800,201.600 96.613,201.600 96.240 C 201.600 95.867,201.133 95.680,200.200 95.680 C 199.267 95.680,198.800 95.867,198.800 96.240 M202.400 95.957 C 202.400 96.154,202.685 96.424,203.033 96.557 C 204.028 96.939,206.800 96.841,206.800 96.424 C 206.800 95.819,206.081 95.546,205.778 96.036 C 205.581 96.354,205.401 96.327,205.162 95.943 C 204.887 95.501,204.673 95.494,204.012 95.903 C 203.532 96.201,203.200 96.242,203.200 96.003 C 203.200 95.782,203.020 95.600,202.800 95.600 C 202.580 95.600,202.400 95.761,202.400 95.957 M207.467 95.867 C 206.848 96.485,207.299 96.800,208.800 96.800 C 210.298 96.800,210.752 96.485,210.137 95.870 C 209.992 95.725,209.648 95.794,209.372 96.023 C 209.025 96.311,208.792 96.310,208.612 96.019 C 208.316 95.540,207.855 95.478,207.467 95.867 M210.800 96.178 C 210.800 96.669,212.084 96.735,219.300 96.610 C 229.686 96.431,228.899 96.485,228.588 95.981 C 228.409 95.690,228.167 95.695,227.803 95.997 C 227.418 96.317,227.222 96.296,227.069 95.917 C 226.907 95.513,226.760 95.532,226.400 96.000 C 226.052 96.453,225.889 96.478,225.736 96.100 C 225.625 95.825,225.293 95.600,225.000 95.600 C 224.707 95.600,224.375 95.825,224.264 96.100 C 224.111 96.476,223.955 96.452,223.630 96.000 C 223.273 95.502,223.140 95.492,222.850 95.943 C 222.594 96.339,222.423 96.361,222.214 96.023 C 221.999 95.675,221.790 95.676,221.364 96.030 C 220.933 96.387,220.667 96.387,220.236 96.030 C 219.831 95.693,219.595 95.685,219.400 96.000 C 219.203 96.318,218.984 96.318,218.600 96.000 C 218.214 95.680,217.994 95.686,217.786 96.023 C 217.577 96.361,217.409 96.339,217.162 95.943 C 216.892 95.509,216.668 95.497,216.041 95.886 C 215.426 96.266,215.214 96.266,215.059 95.886 C 214.914 95.530,214.737 95.561,214.400 96.000 C 214.052 96.453,213.889 96.478,213.736 96.100 C 213.625 95.825,213.293 95.600,213.000 95.600 C 212.707 95.600,212.362 95.825,212.233 96.100 C 212.047 96.500,211.953 96.500,211.767 96.100 C 211.447 95.416,210.800 95.469,210.800 96.178 M229.674 96.111 C 229.304 96.557,229.540 96.650,230.976 96.628 C 232.340 96.606,232.636 96.488,232.312 96.095 C 232.030 95.755,231.738 95.719,231.417 95.986 C 231.103 96.247,230.803 96.243,230.534 95.974 C 230.257 95.697,229.981 95.741,229.674 96.111 M233.412 95.981 C 233.135 96.429,233.143 96.432,235.056 96.595 C 236.427 96.712,237.560 96.226,237.067 95.733 C 236.896 95.563,236.586 95.688,236.378 96.012 C 236.046 96.528,235.947 96.527,235.570 96.000 C 235.234 95.533,235.093 95.514,234.931 95.917 C 234.778 96.296,234.582 96.317,234.197 95.997 C 233.833 95.695,233.591 95.690,233.412 95.981 M238.400 95.957 C 238.400 96.462,239.487 96.818,240.198 96.546 C 240.526 96.419,240.690 96.146,240.562 95.939 C 240.423 95.713,240.102 95.749,239.764 96.030 C 239.359 96.366,239.200 96.372,239.200 96.049 C 239.200 95.802,239.020 95.600,238.800 95.600 C 238.580 95.600,238.400 95.761,238.400 95.957 M245.600 101.200 C 245.600 101.420,245.870 101.600,246.200 101.600 C 246.530 101.600,246.800 101.420,246.800 101.200 C 246.800 100.980,246.530 100.800,246.200 100.800 C 245.870 100.800,245.600 100.980,245.600 101.200 M131.278 131.731 L 101.939 161.062 102.033 198.431 C 102.140 240.602,102.020 239.183,105.352 237.493 C 106.039 237.145,107.320 236.645,108.200 236.382 C 109.080 236.118,110.361 235.565,111.047 235.151 C 111.733 234.738,112.517 234.400,112.789 234.400 C 113.061 234.400,114.127 233.976,115.158 233.459 C 116.188 232.941,117.744 232.285,118.616 232.001 C 119.487 231.717,120.290 231.374,120.400 231.240 C 120.510 231.106,121.320 230.752,122.200 230.455 C 123.744 229.933,125.632 229.137,129.000 227.587 C 129.880 227.182,131.496 226.558,132.590 226.200 C 133.685 225.841,134.765 225.411,134.990 225.243 C 135.216 225.075,136.300 224.609,137.400 224.208 C 138.500 223.807,139.755 223.236,140.189 222.939 C 140.623 222.643,141.304 222.400,141.702 222.400 C 142.658 222.400,142.871 221.735,142.947 218.503 C 142.982 217.016,143.147 215.587,143.312 215.328 C 143.478 215.068,143.458 214.760,143.269 214.643 C 143.080 214.526,142.887 205.982,142.840 195.656 L 142.755 176.883 159.399 160.241 L 176.044 143.600 198.352 143.600 L 220.661 143.600 221.530 142.674 C 222.009 142.165,222.400 141.377,222.400 140.923 C 222.400 140.469,222.670 139.874,223.000 139.600 C 223.330 139.326,223.600 138.708,223.600 138.227 C 223.600 137.746,223.864 137.004,224.187 136.576 C 224.510 136.149,224.780 135.454,224.787 135.031 C 224.794 134.609,225.039 133.979,225.331 133.631 C 225.623 133.284,226.093 132.190,226.376 131.200 C 226.659 130.210,227.205 128.950,227.590 128.400 C 227.974 127.850,228.412 126.725,228.563 125.900 C 228.713 125.075,228.969 124.400,229.131 124.400 C 229.293 124.400,229.669 123.545,229.967 122.500 C 230.265 121.455,230.819 120.060,231.200 119.400 C 231.581 118.740,232.135 117.345,232.433 116.300 C 232.731 115.255,233.096 114.400,233.244 114.400 C 233.392 114.400,233.634 113.905,233.783 113.300 C 233.931 112.695,234.580 111.075,235.226 109.699 C 235.872 108.323,236.400 107.001,236.400 106.761 C 236.400 106.520,236.694 105.825,237.054 105.216 C 237.676 104.164,237.666 104.066,236.854 103.254 L 236.000 102.400 198.308 102.400 L 160.617 102.400 131.278 131.731 M241.600 110.167 C 241.600 110.515,241.885 110.800,242.233 110.800 C 242.940 110.800,242.817 109.939,242.075 109.692 C 241.814 109.605,241.600 109.818,241.600 110.167 M239.600 115.824 C 239.600 116.415,239.772 116.741,240.007 116.596 C 240.230 116.458,240.309 116.177,240.183 115.972 C 240.056 115.768,240.143 115.600,240.376 115.600 C 240.609 115.600,240.800 115.420,240.800 115.200 C 240.800 114.980,240.530 114.800,240.200 114.800 C 239.823 114.800,239.600 115.180,239.600 115.824 M238.000 118.800 C 238.000 119.020,238.270 119.200,238.600 119.200 C 238.930 119.200,239.200 119.020,239.200 118.800 C 239.200 118.580,238.930 118.400,238.600 118.400 C 238.270 118.400,238.000 118.580,238.000 118.800 M237.246 121.900 C 237.275 122.577,237.363 122.731,237.476 122.300 C 237.576 121.915,237.825 121.600,238.029 121.600 C 238.233 121.600,238.400 121.420,238.400 121.200 C 238.400 120.980,238.130 120.800,237.800 120.800 C 237.401 120.800,237.216 121.168,237.246 121.900 M234.828 127.900 C 234.853 128.875,234.895 128.909,235.200 128.200 C 235.669 127.107,235.669 126.800,235.200 126.800 C 234.980 126.800,234.813 127.295,234.828 127.900 M233.600 130.200 C 233.600 130.750,233.780 131.200,234.000 131.200 C 234.220 131.200,234.400 131.035,234.400 130.833 C 234.400 130.631,234.509 130.181,234.643 129.833 C 234.802 129.418,234.665 129.200,234.243 129.200 C 233.824 129.200,233.600 129.548,233.600 130.200 M232.000 133.200 C 232.000 133.420,232.270 133.600,232.600 133.600 C 232.930 133.600,233.200 133.420,233.200 133.200 C 233.200 132.980,232.930 132.800,232.600 132.800 C 232.270 132.800,232.000 132.980,232.000 133.200 M231.200 136.276 C 231.200 137.301,231.227 137.316,231.765 136.581 C 232.339 135.796,232.257 135.200,231.576 135.200 C 231.369 135.200,231.200 135.684,231.200 136.276 M230.406 138.700 C 230.411 139.557,230.498 139.668,230.800 139.200 C 231.306 138.417,231.306 137.600,230.800 137.600 C 230.580 137.600,230.403 138.095,230.406 138.700 M228.806 142.300 C 228.811 143.157,228.898 143.268,229.200 142.800 C 229.706 142.017,229.706 141.200,229.200 141.200 C 228.980 141.200,228.803 141.695,228.806 142.300 M227.600 144.600 C 227.600 145.150,227.761 145.600,227.957 145.600 C 228.424 145.600,228.867 144.432,228.578 143.964 C 228.142 143.259,227.600 143.612,227.600 144.600 M179.700 149.700 C 179.792 149.975,180.467 150.200,181.200 150.200 C 181.933 150.200,182.608 149.975,182.700 149.700 C 182.816 149.353,182.356 149.200,181.200 149.200 C 180.044 149.200,179.584 149.353,179.700 149.700 M183.277 149.630 C 183.356 149.867,183.591 150.060,183.800 150.060 C 184.009 150.060,184.245 149.867,184.323 149.630 C 184.402 149.393,184.167 149.200,183.800 149.200 C 183.433 149.200,183.198 149.393,183.277 149.630 M184.900 149.700 C 184.992 149.975,185.307 150.200,185.600 150.200 C 185.893 150.200,186.208 149.975,186.300 149.700 C 186.399 149.403,186.116 149.200,185.600 149.200 C 185.084 149.200,184.801 149.403,184.900 149.700 M188.400 149.835 C 188.400 150.214,188.804 150.358,189.669 150.287 C 191.466 150.142,191.595 149.280,189.820 149.280 C 188.875 149.280,188.400 149.466,188.400 149.835 M191.677 149.630 C 191.756 149.867,191.991 150.060,192.200 150.060 C 192.409 150.060,192.644 149.867,192.723 149.630 C 192.802 149.393,192.567 149.200,192.200 149.200 C 191.833 149.200,191.598 149.393,191.677 149.630 M193.300 149.700 C 193.392 149.975,193.707 150.200,194.000 150.200 C 194.293 150.200,194.608 149.975,194.700 149.700 C 194.799 149.403,194.516 149.200,194.000 149.200 C 193.484 149.200,193.201 149.403,193.300 149.700 M195.277 149.630 C 195.356 149.867,195.591 150.060,195.800 150.060 C 196.009 150.060,196.245 149.867,196.323 149.630 C 196.402 149.393,196.167 149.200,195.800 149.200 C 195.433 149.200,195.198 149.393,195.277 149.630 M196.911 149.732 C 197.140 150.419,199.600 150.514,199.600 149.835 C 199.600 149.466,199.125 149.280,198.180 149.280 C 197.302 149.280,196.818 149.453,196.911 149.732 M200.400 149.835 C 200.400 150.214,200.804 150.358,201.669 150.287 C 203.466 150.142,203.595 149.280,201.820 149.280 C 200.875 149.280,200.400 149.466,200.400 149.835 M203.677 149.630 C 203.756 149.867,203.991 150.060,204.200 150.060 C 204.409 150.060,204.644 149.867,204.723 149.630 C 204.802 149.393,204.567 149.200,204.200 149.200 C 203.833 149.200,203.598 149.393,203.677 149.630 M205.300 149.700 C 205.392 149.975,206.067 150.200,206.800 150.200 C 207.533 150.200,208.208 149.975,208.300 149.700 C 208.416 149.353,207.956 149.200,206.800 149.200 C 205.644 149.200,205.184 149.353,205.300 149.700 M208.911 149.732 C 209.140 150.419,211.600 150.514,211.600 149.835 C 211.600 149.466,211.125 149.280,210.180 149.280 C 209.302 149.280,208.818 149.453,208.911 149.732 M213.817 149.572 C 213.691 149.777,213.770 150.058,213.993 150.196 C 214.471 150.491,215.200 150.117,215.200 149.576 C 215.200 149.090,214.117 149.087,213.817 149.572 M215.677 149.630 C 215.755 149.867,215.991 150.060,216.200 150.060 C 216.409 150.060,216.645 149.867,216.723 149.630 C 216.802 149.393,216.567 149.200,216.200 149.200 C 215.833 149.200,215.598 149.393,215.677 149.630 M300.400 154.000 C 300.400 154.220,300.085 154.403,299.700 154.406 C 299.135 154.411,299.108 154.481,299.564 154.769 C 299.874 154.965,300.369 155.033,300.664 154.920 C 301.284 154.682,301.396 153.600,300.800 153.600 C 300.580 153.600,300.400 153.780,300.400 154.000 M297.300 155.065 C 296.706 155.304,296.624 156.400,297.200 156.400 C 297.420 156.400,297.600 156.220,297.600 156.000 C 297.600 155.780,297.870 155.600,298.200 155.600 C 298.530 155.600,298.800 155.420,298.800 155.200 C 298.800 154.781,298.149 154.722,297.300 155.065 M95.456 157.878 C 95.315 158.018,95.200 158.748,95.200 159.500 C 95.200 161.243,96.142 161.060,96.286 159.289 C 96.385 158.070,95.969 157.364,95.456 157.878 M95.273 162.658 C 95.343 163.506,95.580 164.154,95.800 164.098 C 96.395 163.946,96.284 161.494,95.673 161.291 C 95.285 161.162,95.180 161.521,95.273 162.658 M295.076 163.881 C 294.458 163.978,293.854 164.315,293.734 164.629 C 293.613 164.943,293.171 165.200,292.752 165.200 C 292.332 165.200,291.677 165.366,291.295 165.568 C 289.018 166.773,287.098 167.600,286.574 167.600 C 286.243 167.600,285.491 167.915,284.904 168.300 C 283.724 169.073,281.317 169.985,280.431 169.994 C 280.119 169.997,279.579 170.239,279.231 170.532 C 278.479 171.166,275.241 172.400,274.329 172.400 C 273.975 172.400,273.582 172.670,273.455 173.000 C 273.329 173.330,272.895 173.600,272.492 173.600 C 271.588 173.600,269.607 174.491,269.603 174.900 C 269.601 175.065,269.161 175.200,268.624 175.200 C 268.087 175.200,267.536 175.380,267.400 175.600 C 267.264 175.820,266.787 176.000,266.339 176.000 C 265.892 176.000,265.069 176.360,264.509 176.800 C 263.950 177.240,263.077 177.600,262.570 177.600 C 262.062 177.600,261.536 177.780,261.400 178.000 C 261.264 178.220,260.745 178.400,260.246 178.400 C 257.573 178.400,257.634 177.810,257.762 202.363 L 257.877 224.525 255.938 226.423 C 254.872 227.467,254.000 228.474,254.000 228.662 C 254.000 228.850,247.474 235.528,239.498 243.502 L 224.996 258.000 203.198 258.005 C 191.209 258.008,181.017 258.114,180.548 258.239 C 179.725 258.460,177.600 262.097,177.600 263.286 C 177.600 263.581,177.335 264.200,177.012 264.661 C 176.689 265.123,176.137 266.378,175.787 267.450 C 175.436 268.523,174.818 270.120,174.413 271.000 C 172.613 274.913,172.038 276.309,171.571 277.900 C 171.298 278.835,170.950 279.600,170.800 279.600 C 170.650 279.600,170.303 280.365,170.029 281.300 C 169.756 282.235,169.075 283.990,168.516 285.200 C 167.958 286.410,167.277 287.940,167.003 288.600 C 166.729 289.260,166.270 290.340,165.982 291.000 C 165.695 291.660,165.490 292.329,165.526 292.487 C 165.562 292.645,165.143 293.617,164.596 294.647 C 163.468 296.767,163.356 297.699,164.148 298.357 C 164.551 298.692,174.797 298.784,202.870 298.706 L 241.043 298.600 269.822 269.821 L 298.600 241.042 298.600 203.621 C 298.600 159.268,298.955 163.269,295.076 163.881 M95.200 165.200 C 95.200 165.420,95.470 165.600,95.800 165.600 C 96.130 165.600,96.400 165.420,96.400 165.200 C 96.400 164.980,96.130 164.800,95.800 164.800 C 95.470 164.800,95.200 164.980,95.200 165.200 M95.200 167.000 C 95.200 167.330,95.470 167.600,95.800 167.600 C 96.130 167.600,96.400 167.330,96.400 167.000 C 96.400 166.670,96.130 166.400,95.800 166.400 C 95.470 166.400,95.200 166.670,95.200 167.000 M95.200 168.800 C 95.200 169.020,95.470 169.200,95.800 169.200 C 96.130 169.200,96.400 169.020,96.400 168.800 C 96.400 168.580,96.130 168.400,95.800 168.400 C 95.470 168.400,95.200 168.580,95.200 168.800 M95.456 169.878 C 95.315 170.018,95.200 170.748,95.200 171.500 C 95.200 173.243,96.142 173.060,96.286 171.289 C 96.385 170.070,95.969 169.364,95.456 169.878 M95.260 173.580 C 95.432 174.096,95.981 174.188,96.030 173.710 C 96.047 173.551,95.844 173.348,95.580 173.260 C 95.316 173.172,95.172 173.316,95.260 173.580 M95.271 175.421 C 95.452 176.290,96.161 176.343,96.324 175.500 C 96.408 175.062,96.212 174.800,95.800 174.800 C 95.416 174.800,95.195 175.059,95.271 175.421 M95.200 177.200 C 95.200 177.420,95.470 177.600,95.800 177.600 C 96.130 177.600,96.400 177.420,96.400 177.200 C 96.400 176.980,96.130 176.800,95.800 176.800 C 95.470 176.800,95.200 176.980,95.200 177.200 M95.200 179.000 C 95.200 179.330,95.470 179.600,95.800 179.600 C 96.130 179.600,96.400 179.330,96.400 179.000 C 96.400 178.670,96.130 178.400,95.800 178.400 C 95.470 178.400,95.200 178.670,95.200 179.000 M95.200 180.800 C 95.200 181.020,95.470 181.200,95.800 181.200 C 96.130 181.200,96.400 181.020,96.400 180.800 C 96.400 180.580,96.130 180.400,95.800 180.400 C 95.470 180.400,95.200 180.580,95.200 180.800 M95.388 182.020 C 95.007 182.635,95.528 183.032,96.042 182.518 C 96.329 182.231,96.336 182.007,96.062 181.839 C 95.839 181.700,95.535 181.782,95.388 182.020 M95.200 184.000 C 95.200 184.516,95.403 184.799,95.700 184.700 C 95.975 184.608,96.200 184.293,96.200 184.000 C 96.200 183.707,95.975 183.392,95.700 183.300 C 95.403 183.201,95.200 183.484,95.200 184.000 M95.260 185.580 C 95.432 186.096,95.981 186.188,96.030 185.710 C 96.047 185.551,95.844 185.348,95.580 185.260 C 95.316 185.172,95.172 185.316,95.260 185.580 M95.271 187.421 C 95.452 188.290,96.161 188.343,96.324 187.500 C 96.408 187.062,96.212 186.800,95.800 186.800 C 95.416 186.800,95.195 187.059,95.271 187.421 M95.200 189.200 C 95.200 189.420,95.470 189.600,95.800 189.600 C 96.130 189.600,96.400 189.420,96.400 189.200 C 96.400 188.980,96.130 188.800,95.800 188.800 C 95.470 188.800,95.200 188.980,95.200 189.200 M95.200 190.800 C 95.200 191.020,95.470 191.200,95.800 191.200 C 96.130 191.200,96.400 191.020,96.400 190.800 C 96.400 190.580,96.130 190.400,95.800 190.400 C 95.470 190.400,95.200 190.580,95.200 190.800 M95.200 192.800 C 95.200 193.020,95.470 193.200,95.800 193.200 C 96.130 193.200,96.400 193.020,96.400 192.800 C 96.400 192.580,96.130 192.400,95.800 192.400 C 95.470 192.400,95.200 192.580,95.200 192.800 M95.388 194.020 C 95.007 194.635,95.528 195.032,96.042 194.518 C 96.329 194.231,96.336 194.007,96.062 193.839 C 95.839 193.700,95.535 193.782,95.388 194.020 M95.200 196.000 C 95.200 196.516,95.403 196.799,95.700 196.700 C 95.975 196.608,96.200 196.293,96.200 196.000 C 96.200 195.707,95.975 195.392,95.700 195.300 C 95.403 195.201,95.200 195.484,95.200 196.000 M95.260 197.580 C 95.432 198.096,95.981 198.188,96.030 197.710 C 96.047 197.551,95.844 197.348,95.580 197.260 C 95.316 197.172,95.172 197.316,95.260 197.580 M95.200 199.200 C 95.200 199.420,95.470 199.600,95.800 199.600 C 96.130 199.600,96.400 199.420,96.400 199.200 C 96.400 198.980,96.130 198.800,95.800 198.800 C 95.470 198.800,95.200 198.980,95.200 199.200 M95.200 201.200 C 95.200 201.420,95.470 201.600,95.800 201.600 C 96.130 201.600,96.400 201.420,96.400 201.200 C 96.400 200.980,96.130 200.800,95.800 200.800 C 95.470 200.800,95.200 200.980,95.200 201.200 M95.200 202.800 C 95.200 203.020,95.470 203.200,95.800 203.200 C 96.130 203.200,96.400 203.020,96.400 202.800 C 96.400 202.580,96.130 202.400,95.800 202.400 C 95.470 202.400,95.200 202.580,95.200 202.800 M95.388 206.020 C 95.007 206.635,95.528 207.032,96.042 206.518 C 96.329 206.231,96.336 206.007,96.062 205.839 C 95.839 205.700,95.535 205.782,95.388 206.020 M95.260 209.580 C 95.432 210.096,95.981 210.188,96.030 209.710 C 96.047 209.550,95.844 209.348,95.580 209.260 C 95.316 209.172,95.172 209.316,95.260 209.580 M95.200 211.200 C 95.200 211.420,95.470 211.600,95.800 211.600 C 96.130 211.600,96.400 211.420,96.400 211.200 C 96.400 210.980,96.130 210.800,95.800 210.800 C 95.470 210.800,95.200 210.980,95.200 211.200 M95.200 214.800 C 95.200 215.020,95.470 215.200,95.800 215.200 C 96.130 215.200,96.400 215.020,96.400 214.800 C 96.400 214.580,96.130 214.400,95.800 214.400 C 95.470 214.400,95.200 214.580,95.200 214.800 M250.006 223.182 C 249.459 223.602,249.099 224.024,249.206 224.121 C 249.313 224.217,249.846 223.869,250.392 223.348 C 251.582 222.210,251.382 222.124,250.006 223.182 M304.800 236.200 C 304.800 236.530,304.980 236.800,305.200 236.800 C 305.420 236.800,305.600 236.530,305.600 236.200 C 305.600 235.870,305.420 235.600,305.200 235.600 C 304.980 235.600,304.800 235.870,304.800 236.200 M304.800 239.800 C 304.800 240.130,304.980 240.400,305.200 240.400 C 305.420 240.400,305.600 240.130,305.600 239.800 C 305.600 239.470,305.420 239.200,305.200 239.200 C 304.980 239.200,304.800 239.470,304.800 239.800 M106.297 244.050 C 105.914 244.264,105.600 244.611,105.600 244.820 C 105.600 245.463,106.699 245.240,106.967 244.543 C 107.296 243.685,107.146 243.575,106.297 244.050 M179.831 251.549 C 179.536 252.027,179.903 252.219,181.092 252.208 C 181.583 252.204,181.994 252.020,182.005 251.800 C 182.032 251.265,180.142 251.047,179.831 251.549 M182.800 251.800 C 182.800 252.130,182.980 252.400,183.200 252.400 C 183.420 252.400,183.600 252.130,183.600 251.800 C 183.600 251.470,183.420 251.200,183.200 251.200 C 182.980 251.200,182.800 251.470,182.800 251.800 M184.400 251.800 C 184.400 252.130,184.670 252.400,185.000 252.400 C 185.330 252.400,185.600 252.130,185.600 251.800 C 185.600 251.470,185.330 251.200,185.000 251.200 C 184.670 251.200,184.400 251.470,184.400 251.800 M186.400 251.800 C 186.400 252.130,186.580 252.400,186.800 252.400 C 187.020 252.400,187.200 252.130,187.200 251.800 C 187.200 251.470,187.020 251.200,186.800 251.200 C 186.580 251.200,186.400 251.470,186.400 251.800 M187.867 251.467 C 187.283 252.050,187.673 252.291,189.200 252.291 C 190.284 252.291,190.800 252.115,190.800 251.745 C 190.800 251.180,188.383 250.950,187.867 251.467 M191.200 251.753 C 191.200 252.182,191.573 252.331,192.500 252.271 C 194.345 252.153,194.492 251.424,192.700 251.276 C 191.577 251.183,191.200 251.303,191.200 251.753 M194.800 251.800 C 194.800 252.130,194.980 252.400,195.200 252.400 C 195.420 252.400,195.600 252.130,195.600 251.800 C 195.600 251.470,195.420 251.200,195.200 251.200 C 194.980 251.200,194.800 251.470,194.800 251.800 M196.400 251.800 C 196.400 252.128,196.918 252.320,197.800 252.320 C 198.682 252.320,199.200 252.128,199.200 251.800 C 199.200 251.472,198.682 251.280,197.800 251.280 C 196.918 251.280,196.400 251.472,196.400 251.800 M199.867 251.467 C 199.283 252.050,199.673 252.291,201.200 252.291 C 202.284 252.291,202.800 252.115,202.800 251.745 C 202.800 251.180,200.383 250.950,199.867 251.467 M203.200 251.767 C 203.200 252.115,203.485 252.400,203.833 252.400 C 204.182 252.400,204.395 252.186,204.308 251.925 C 204.061 251.183,203.200 251.060,203.200 251.767 M204.800 251.771 C 204.800 252.142,205.142 252.400,205.633 252.400 C 206.608 252.400,206.470 251.465,205.467 251.271 C 205.072 251.194,204.800 251.398,204.800 251.771 M206.800 251.800 C 206.800 252.130,206.980 252.400,207.200 252.400 C 207.420 252.400,207.600 252.130,207.600 251.800 C 207.600 251.470,207.420 251.200,207.200 251.200 C 206.980 251.200,206.800 251.470,206.800 251.800 M208.400 251.800 C 208.400 252.128,208.918 252.320,209.800 252.320 C 210.682 252.320,211.200 252.128,211.200 251.800 C 211.200 251.472,210.682 251.280,209.800 251.280 C 208.918 251.280,208.400 251.472,208.400 251.800 M211.867 251.467 C 211.406 251.927,211.575 252.400,212.200 252.400 C 212.530 252.400,212.800 252.130,212.800 251.800 C 212.800 251.175,212.327 251.006,211.867 251.467 M213.200 251.800 C 213.200 252.133,213.556 252.400,214.000 252.400 C 214.444 252.400,214.800 252.133,214.800 251.800 C 214.800 251.467,214.444 251.200,214.000 251.200 C 213.556 251.200,213.200 251.467,213.200 251.800 M215.200 251.767 C 215.200 252.115,215.485 252.400,215.833 252.400 C 216.540 252.400,216.417 251.539,215.675 251.292 C 215.414 251.205,215.200 251.418,215.200 251.767 M216.800 251.840 C 216.800 252.213,217.267 252.400,218.200 252.400 C 219.133 252.400,219.600 252.213,219.600 251.840 C 219.600 251.467,219.133 251.280,218.200 251.280 C 217.267 251.280,216.800 251.467,216.800 251.840 M220.400 251.800 C 220.400 252.130,220.580 252.400,220.800 252.400 C 221.020 252.400,221.200 252.130,221.200 251.800 C 221.200 251.470,221.020 251.200,220.800 251.200 C 220.580 251.200,220.400 251.470,220.400 251.800 M171.429 260.229 C 171.005 260.538,170.772 260.905,170.910 261.043 C 171.049 261.182,171.462 260.995,171.829 260.629 C 172.691 259.766,172.425 259.500,171.429 260.229 M290.738 291.100 L 266.077 315.800 286.881 336.557 L 307.685 357.314 332.342 332.657 L 356.999 308.000 336.199 287.200 L 315.398 266.399 290.738 291.100 M167.900 268.676 C 167.068 268.893,166.959 269.600,167.757 269.600 C 168.064 269.600,168.418 269.330,168.545 269.000 C 168.671 268.670,168.736 268.421,168.687 268.446 C 168.639 268.472,168.285 268.575,167.900 268.676 M166.400 271.800 C 166.400 272.130,166.580 272.400,166.800 272.400 C 167.020 272.400,167.200 272.130,167.200 271.800 C 167.200 271.470,167.020 271.200,166.800 271.200 C 166.580 271.200,166.400 271.470,166.400 271.800 M164.292 277.237 C 163.902 277.464,163.688 277.818,163.815 278.025 C 164.197 278.643,164.693 278.452,164.916 277.600 C 165.031 277.160,165.097 276.805,165.063 276.812 C 165.028 276.819,164.681 277.010,164.292 277.237 M162.800 280.200 C 162.800 280.567,162.994 280.802,163.230 280.723 C 163.466 280.645,163.660 280.409,163.660 280.200 C 163.660 279.991,163.466 279.755,163.230 279.677 C 162.994 279.598,162.800 279.833,162.800 280.200 M161.260 283.580 C 161.432 284.096,161.981 284.188,162.030 283.710 C 162.047 283.550,161.844 283.348,161.580 283.260 C 161.316 283.172,161.172 283.316,161.260 283.580 M160.900 285.488 C 160.332 285.691,160.211 286.800,160.757 286.800 C 161.094 286.800,161.745 285.587,161.509 285.398 C 161.449 285.349,161.175 285.390,160.900 285.488 M158.292 291.637 C 157.902 291.864,157.688 292.218,157.815 292.425 C 158.197 293.043,158.693 292.852,158.916 292.000 C 159.031 291.560,159.097 291.205,159.063 291.212 C 159.028 291.219,158.681 291.410,158.292 291.637 M156.800 294.800 C 156.800 295.020,157.070 295.200,157.400 295.200 C 157.730 295.200,158.000 295.020,158.000 294.800 C 158.000 294.580,157.730 294.400,157.400 294.400 C 157.070 294.400,156.800 294.580,156.800 294.800 M159.284 305.139 C 158.953 305.350,159.208 305.467,160.000 305.467 C 160.792 305.467,161.047 305.350,160.716 305.139 C 160.432 304.959,160.110 304.812,160.000 304.812 C 159.890 304.812,159.568 304.959,159.284 305.139 M162.859 305.163 C 162.586 305.332,163.283 305.481,164.407 305.494 C 165.532 305.507,166.383 305.450,166.299 305.366 C 165.965 305.032,163.324 304.876,162.859 305.163 M167.616 305.182 C 167.193 305.449,167.394 305.541,168.340 305.514 C 169.198 305.490,169.468 305.363,169.124 305.145 C 168.463 304.726,168.332 304.729,167.616 305.182 M171.164 305.222 C 170.966 305.345,174.853 305.449,179.801 305.455 C 184.749 305.460,188.693 305.360,188.565 305.232 C 188.268 304.935,171.645 304.926,171.164 305.222 M189.200 305.153 C 189.200 305.347,189.920 305.516,190.800 305.528 C 191.680 305.540,192.400 305.381,192.400 305.175 C 192.400 304.969,191.680 304.800,190.800 304.800 C 189.920 304.800,189.200 304.959,189.200 305.153 M192.800 305.125 C 192.800 305.304,193.790 305.450,195.000 305.450 C 196.210 305.450,197.200 305.304,197.200 305.125 C 197.200 304.946,196.210 304.800,195.000 304.800 C 193.790 304.800,192.800 304.946,192.800 305.125 M197.600 305.200 C 197.600 305.420,198.320 305.600,199.200 305.600 C 200.080 305.600,200.800 305.420,200.800 305.200 C 200.800 304.980,200.080 304.800,199.200 304.800 C 198.320 304.800,197.600 304.980,197.600 305.200 M201.200 305.153 C 201.200 305.347,201.920 305.516,202.800 305.528 C 203.680 305.540,204.400 305.381,204.400 305.175 C 204.400 304.969,203.680 304.800,202.800 304.800 C 201.920 304.800,201.200 304.959,201.200 305.153 M206.400 305.160 C 206.400 305.359,207.030 305.503,207.800 305.481 C 208.570 305.459,209.200 305.297,209.200 305.121 C 209.200 304.944,208.570 304.800,207.800 304.800 C 207.030 304.800,206.400 304.962,206.400 305.160 M209.600 305.200 C 209.600 305.420,209.870 305.600,210.200 305.600 C 210.530 305.600,210.800 305.420,210.800 305.200 C 210.800 304.980,210.530 304.800,210.200 304.800 C 209.870 304.800,209.600 304.980,209.600 305.200 M211.200 305.200 C 211.200 305.420,211.560 305.600,212.000 305.600 C 212.440 305.600,212.800 305.420,212.800 305.200 C 212.800 304.980,212.440 304.800,212.000 304.800 C 211.560 304.800,211.200 304.980,211.200 305.200 M213.200 305.200 C 213.200 305.420,213.470 305.600,213.800 305.600 C 214.130 305.600,214.400 305.420,214.400 305.200 C 214.400 304.980,214.130 304.800,213.800 304.800 C 213.470 304.800,213.200 304.980,213.200 305.200 M214.800 305.200 C 214.800 305.420,215.160 305.600,215.600 305.600 C 216.040 305.600,216.400 305.420,216.400 305.200 C 216.400 304.980,216.040 304.800,215.600 304.800 C 215.160 304.800,214.800 304.980,214.800 305.200 M218.400 305.200 C 218.400 305.420,219.030 305.600,219.800 305.600 C 220.570 305.600,221.200 305.420,221.200 305.200 C 221.200 304.980,220.570 304.800,219.800 304.800 C 219.030 304.800,218.400 304.980,218.400 305.200 M221.600 305.200 C 221.600 305.420,221.870 305.600,222.200 305.600 C 222.530 305.600,222.800 305.420,222.800 305.200 C 222.800 304.980,222.530 304.800,222.200 304.800 C 221.870 304.800,221.600 304.980,221.600 305.200 M223.200 305.200 C 223.200 305.420,223.560 305.600,224.000 305.600 C 224.440 305.600,224.800 305.420,224.800 305.200 C 224.800 304.980,224.440 304.800,224.000 304.800 C 223.560 304.800,223.200 304.980,223.200 305.200 M225.200 305.200 C 225.200 305.420,225.470 305.600,225.800 305.600 C 226.130 305.600,226.400 305.420,226.400 305.200 C 226.400 304.980,226.130 304.800,225.800 304.800 C 225.470 304.800,225.200 304.980,225.200 305.200 M226.800 305.200 C 226.800 305.420,227.430 305.600,228.200 305.600 C 228.970 305.600,229.600 305.420,229.600 305.200 C 229.600 304.980,228.970 304.800,228.200 304.800 C 227.430 304.800,226.800 304.980,226.800 305.200 M230.400 305.200 C 230.400 305.420,231.030 305.600,231.800 305.600 C 232.570 305.600,233.200 305.420,233.200 305.200 C 233.200 304.980,232.570 304.800,231.800 304.800 C 231.030 304.800,230.400 304.980,230.400 305.200 M233.600 305.200 C 233.600 305.420,233.870 305.600,234.200 305.600 C 234.530 305.600,234.800 305.420,234.800 305.200 C 234.800 304.980,234.530 304.800,234.200 304.800 C 233.870 304.800,233.600 304.980,233.600 305.200 M235.200 305.200 C 235.200 305.420,235.920 305.600,236.800 305.600 C 237.680 305.600,238.400 305.420,238.400 305.200 C 238.400 304.980,237.680 304.800,236.800 304.800 C 235.920 304.800,235.200 304.980,235.200 305.200 M238.800 305.200 C 238.800 305.420,239.430 305.600,240.200 305.600 C 240.970 305.600,241.600 305.420,241.600 305.200 C 241.600 304.980,240.970 304.800,240.200 304.800 C 239.430 304.800,238.800 304.980,238.800 305.200 " stroke="none" fill="#1c94cc" fill-rule="evenodd"></path><path id="path1" d="M110.065 15.647 C 104.969 20.732,100.800 25.154,100.800 25.472 C 100.800 25.791,112.674 37.920,127.187 52.426 L 153.573 78.800 202.046 78.800 L 250.520 78.800 286.060 114.339 L 321.600 149.878 321.600 198.539 C 321.600 230.713,321.736 247.200,322.000 247.200 C 322.220 247.200,322.400 247.408,322.400 247.663 C 322.400 247.917,334.181 259.904,348.580 274.301 L 374.761 300.476 384.580 290.656 L 394.400 280.836 394.400 200.238 L 394.400 119.639 337.779 63.020 L 281.159 6.400 200.245 6.400 L 119.331 6.400 110.065 15.647 M332.699 68.099 L 387.600 122.999 387.600 200.363 L 387.600 277.728 380.975 284.338 L 374.351 290.948 351.375 267.975 L 328.400 245.003 328.400 196.002 L 328.400 147.002 290.901 109.501 L 253.402 72.000 204.599 72.000 L 155.797 72.000 132.802 49.002 L 109.806 26.003 116.198 19.602 L 122.591 13.200 200.195 13.200 L 277.799 13.200 332.699 68.099 M62.860 62.860 C 47.427 78.293,34.800 91.064,34.800 91.241 C 34.800 91.686,85.555 142.400,86.001 142.400 C 86.624 142.400,142.400 86.390,142.400 85.763 C 142.400 85.004,92.243 34.800,91.484 34.800 C 91.174 34.800,78.293 47.427,62.860 62.860 M113.783 63.743 L 134.722 84.687 110.053 109.343 C 96.486 122.905,85.208 134.000,84.991 134.000 C 84.774 134.000,75.248 124.649,63.820 113.220 L 43.043 92.441 67.822 67.633 C 81.450 53.989,92.655 42.820,92.722 42.813 C 92.789 42.806,102.267 52.225,113.783 63.743 M197.083 96.739 C 196.688 96.895,187.490 96.973,176.641 96.912 L 156.916 96.802 126.658 127.062 L 96.400 157.322 96.400 200.773 L 96.400 244.224 97.766 245.512 C 99.113 246.783,100.400 247.204,100.400 246.373 C 100.400 246.128,100.741 246.054,101.201 246.200 C 101.688 246.355,102.248 246.209,102.630 245.827 C 102.975 245.482,103.576 245.200,103.966 245.200 C 104.356 245.200,105.199 244.750,105.838 244.200 C 106.477 243.651,107.257 243.201,107.572 243.200 C 108.566 243.200,110.970 242.227,111.775 241.500 C 112.202 241.115,112.652 240.785,112.775 240.768 C 112.899 240.750,113.506 240.698,114.123 240.653 C 114.741 240.608,115.371 240.376,115.523 240.136 C 115.676 239.896,116.397 239.571,117.127 239.413 C 117.857 239.254,118.551 238.873,118.669 238.565 C 118.810 238.198,119.213 238.088,119.842 238.246 C 120.400 238.386,120.800 238.310,120.800 238.064 C 120.800 237.832,121.880 237.338,123.200 236.968 C 124.520 236.598,125.600 236.172,125.600 236.023 C 125.600 235.874,126.680 235.428,128.000 235.032 C 129.320 234.637,130.400 234.182,130.400 234.020 C 130.400 233.859,131.120 233.511,132.000 233.247 C 132.880 232.984,133.600 232.612,133.600 232.421 C 133.600 232.231,133.960 232.169,134.400 232.284 C 134.840 232.399,135.200 232.325,135.200 232.120 C 135.200 231.914,136.190 231.434,137.400 231.053 C 138.610 230.671,139.600 230.226,139.600 230.063 C 139.600 229.899,140.452 229.538,141.493 229.260 C 142.534 228.981,143.952 228.322,144.643 227.794 C 145.335 227.266,146.001 226.935,146.124 227.057 C 146.246 227.180,146.988 227.068,147.773 226.809 L 149.200 226.338 149.200 210.202 C 149.200 197.668,149.088 194.022,148.700 193.865 C 148.300 193.704,148.300 193.657,148.700 193.632 C 149.385 193.588,149.385 189.353,148.700 189.033 C 148.300 188.847,148.300 188.753,148.700 188.567 C 149.038 188.409,149.200 187.316,149.200 185.200 C 149.200 183.068,149.040 182.002,148.700 181.865 C 148.300 181.704,148.300 181.657,148.700 181.632 C 148.975 181.614,149.200 181.141,149.200 180.579 C 149.200 179.769,152.347 176.411,164.435 164.323 L 179.670 149.088 202.645 149.163 C 227.466 149.244,226.393 149.335,226.936 147.093 C 227.081 146.492,227.316 145.505,227.458 144.900 C 227.600 144.295,227.976 143.648,228.292 143.461 C 228.664 143.242,228.782 142.783,228.626 142.161 C 228.493 141.633,228.537 141.200,228.722 141.200 C 229.189 141.200,231.315 136.509,231.046 136.074 C 230.926 135.880,231.191 135.332,231.634 134.855 C 232.078 134.379,232.319 133.792,232.169 133.550 C 232.020 133.308,232.056 132.996,232.249 132.855 C 232.843 132.423,233.600 130.851,233.600 130.048 C 233.600 129.629,233.889 129.175,234.242 129.039 C 234.692 128.866,234.812 128.504,234.643 127.829 C 234.510 127.300,234.542 126.806,234.713 126.733 C 235.196 126.527,237.125 122.355,237.409 120.900 C 237.549 120.185,237.840 119.600,238.055 119.600 C 238.271 119.600,238.324 119.400,238.172 119.155 C 238.021 118.911,238.056 118.596,238.249 118.455 C 238.856 118.014,239.600 116.444,239.600 115.605 C 239.600 115.162,239.800 114.800,240.043 114.800 C 240.314 114.800,240.391 114.419,240.241 113.821 C 240.074 113.156,240.195 112.731,240.617 112.494 C 240.959 112.303,241.292 111.646,241.357 111.035 C 241.423 110.424,241.722 109.772,242.024 109.585 C 242.325 109.399,242.590 108.831,242.612 108.322 C 242.648 107.505,243.759 105.347,244.425 104.800 C 244.559 104.690,244.918 103.745,245.222 102.700 C 245.526 101.655,245.915 100.800,246.087 100.800 C 246.898 100.800,246.254 99.028,244.981 97.754 C 243.825 96.599,243.453 96.424,242.981 96.816 C 242.636 97.102,242.400 97.132,242.400 96.891 C 242.400 96.385,240.298 96.452,239.930 96.969 C 239.769 97.196,239.395 97.128,239.000 96.800 C 238.438 96.334,238.284 96.338,237.976 96.826 C 237.723 97.224,237.610 97.247,237.606 96.900 C 237.603 96.625,237.330 96.400,237.000 96.400 C 236.670 96.400,236.400 96.550,236.400 96.733 C 236.400 96.917,235.860 97.067,235.200 97.067 C 234.540 97.067,234.000 96.917,234.000 96.733 C 234.000 96.207,232.889 96.345,232.664 96.900 C 232.506 97.288,232.375 97.278,232.079 96.855 C 231.756 96.394,231.668 96.394,231.513 96.855 C 231.359 97.314,231.226 97.314,230.665 96.851 C 230.162 96.436,230.000 96.423,230.000 96.800 C 230.000 97.195,229.877 97.196,229.405 96.804 C 229.057 96.515,228.518 96.437,228.105 96.617 C 227.102 97.052,226.277 97.067,225.705 96.662 C 225.433 96.468,224.893 96.448,224.505 96.617 C 223.499 97.053,222.677 97.067,222.100 96.657 C 221.791 96.438,221.600 96.464,221.600 96.726 C 221.600 96.959,221.240 97.123,220.800 97.090 C 220.360 97.057,220.000 96.933,220.000 96.815 C 220.000 96.697,219.550 96.600,219.000 96.600 C 218.450 96.600,218.000 96.711,218.000 96.847 C 218.000 97.198,215.500 97.058,214.900 96.674 C 214.625 96.497,214.400 96.516,214.400 96.716 C 214.400 97.008,210.504 97.039,202.600 96.809 C 202.380 96.803,201.445 96.887,200.522 96.996 C 199.599 97.106,198.734 97.016,198.598 96.798 C 198.320 96.347,198.098 96.339,197.083 96.739 M15.647 110.065 L 6.400 119.331 6.400 200.245 L 6.400 281.159 63.020 337.779 L 119.639 394.400 200.237 394.400 L 280.834 394.400 290.217 385.021 C 295.378 379.863,299.600 375.813,299.600 376.021 C 299.600 376.229,299.870 376.400,300.200 376.400 C 300.530 376.400,300.800 376.130,300.800 375.800 C 300.800 375.470,300.609 375.200,300.377 375.200 C 300.144 375.200,287.895 363.140,273.158 348.400 L 246.364 321.600 198.120 321.600 L 149.877 321.600 114.479 286.200 C 95.011 266.730,78.929 250.800,78.741 250.800 C 78.553 250.800,78.400 228.832,78.400 201.983 L 78.400 153.166 52.224 126.983 C 37.827 112.582,25.788 100.800,25.471 100.800 C 25.153 100.800,20.732 104.969,15.647 110.065 M237.332 103.265 C 237.737 103.907,237.036 107.088,236.376 107.600 C 236.234 107.710,235.807 108.745,235.427 109.900 C 235.047 111.055,234.593 112.000,234.418 112.000 C 234.243 112.000,233.984 112.581,233.842 113.290 C 233.700 114.000,233.258 115.305,232.859 116.190 C 231.104 120.089,230.800 120.861,230.800 121.414 C 230.800 121.736,230.657 122.000,230.482 122.000 C 230.155 122.000,228.800 126.007,228.800 126.973 C 228.800 127.271,228.558 127.607,228.262 127.721 C 227.966 127.834,227.493 128.754,227.210 129.764 C 226.927 130.774,226.539 131.600,226.348 131.600 C 226.157 131.600,226.000 132.039,226.000 132.576 C 226.000 133.113,225.820 133.664,225.600 133.800 C 225.380 133.936,225.200 134.413,225.200 134.861 C 225.200 135.308,224.840 136.131,224.400 136.691 C 223.960 137.250,223.600 138.123,223.600 138.630 C 223.600 139.138,223.420 139.664,223.200 139.800 C 222.980 139.936,222.800 140.395,222.800 140.821 C 222.800 141.246,222.408 142.045,221.928 142.597 L 221.056 143.600 198.743 143.600 L 176.430 143.600 159.785 160.250 L 143.141 176.901 143.270 199.189 C 143.416 224.292,143.687 222.284,140.005 223.399 C 138.682 223.799,137.600 224.245,137.600 224.390 C 137.600 224.535,136.565 224.977,135.300 225.372 C 134.035 225.767,132.816 226.238,132.590 226.419 C 132.365 226.600,131.285 227.051,130.190 227.421 C 129.096 227.791,128.110 228.216,128.000 228.364 C 127.890 228.512,126.990 228.888,126.000 229.199 C 125.010 229.510,123.417 230.172,122.461 230.671 C 121.504 231.170,120.109 231.693,119.361 231.834 C 118.612 231.974,118.000 232.240,118.000 232.424 C 118.000 232.608,117.010 233.071,115.800 233.453 C 114.590 233.834,113.600 234.293,113.600 234.473 C 113.600 234.653,113.322 234.800,112.983 234.800 C 112.644 234.800,111.249 235.309,109.883 235.931 C 104.580 238.345,102.850 238.519,102.360 236.688 C 102.196 236.076,102.043 218.713,102.018 198.104 L 101.974 160.632 131.092 131.514 L 160.210 102.396 198.562 102.498 C 233.808 102.592,236.947 102.654,237.332 103.265 M49.099 132.899 L 72.000 155.797 72.000 204.598 L 72.000 253.398 109.499 290.899 L 146.998 328.400 195.600 328.400 L 244.203 328.400 267.385 351.585 L 290.567 374.770 284.138 381.185 L 277.710 387.600 200.355 387.600 L 123.001 387.600 68.101 332.701 L 13.200 277.801 13.200 200.205 L 13.200 122.609 19.495 116.305 C 22.958 112.837,25.882 110.000,25.994 110.000 C 26.106 110.000,36.503 120.304,49.099 132.899 M298.802 155.398 C 298.528 155.727,297.606 156.206,296.753 156.461 C 295.899 156.717,295.200 157.097,295.200 157.306 C 295.200 157.515,294.910 157.574,294.556 157.438 C 294.148 157.282,293.461 157.632,292.680 158.396 C 291.403 159.644,290.800 159.898,290.800 159.186 C 290.800 158.900,290.560 158.900,290.026 159.186 C 289.601 159.414,288.980 159.600,288.647 159.600 C 288.314 159.600,287.553 160.053,286.955 160.606 C 286.301 161.212,285.594 161.525,285.177 161.393 C 284.796 161.272,284.208 161.449,283.871 161.786 C 283.533 162.124,282.918 162.400,282.504 162.400 C 282.090 162.400,281.353 162.771,280.866 163.224 C 280.294 163.757,279.703 163.960,279.191 163.797 C 278.756 163.659,278.400 163.726,278.400 163.946 C 278.400 164.387,276.871 165.008,276.130 164.868 C 275.872 164.819,275.546 164.964,275.407 165.189 C 275.267 165.415,274.733 165.600,274.219 165.600 C 273.706 165.600,273.182 165.870,273.055 166.200 C 272.929 166.530,272.614 166.800,272.357 166.800 C 272.099 166.800,271.647 167.115,271.352 167.500 C 270.882 168.113,270.764 168.125,270.400 167.600 C 270.036 167.075,269.918 167.087,269.448 167.700 C 269.153 168.085,268.532 168.400,268.068 168.400 C 267.456 168.400,267.293 168.577,267.473 169.046 C 267.672 169.565,267.545 169.636,266.831 169.410 C 266.200 169.210,265.777 169.342,265.378 169.864 C 264.888 170.505,264.762 170.523,264.400 170.000 C 264.038 169.476,263.933 169.488,263.573 170.100 C 263.346 170.485,262.807 170.800,262.375 170.800 C 261.378 170.800,259.972 171.584,259.254 172.541 C 258.809 173.133,258.631 173.174,258.365 172.744 C 258.101 172.316,257.932 172.308,257.537 172.703 C 257.263 172.977,256.620 173.200,256.107 173.200 C 255.595 173.200,255.071 173.470,254.945 173.800 C 254.818 174.130,254.464 174.400,254.157 174.400 C 253.851 174.400,253.600 174.583,253.600 174.808 C 253.600 175.043,253.176 175.109,252.594 174.963 L 251.588 174.710 251.606 198.586 L 251.625 222.462 249.312 224.650 C 248.041 225.853,241.220 232.589,234.156 239.618 L 221.311 252.399 198.458 252.375 C 174.329 252.349,174.596 252.332,174.984 253.877 C 175.174 254.637,175.055 254.913,174.469 255.066 C 173.942 255.204,173.479 256.025,172.968 257.733 C 172.561 259.090,171.984 260.451,171.685 260.758 C 171.379 261.072,171.241 261.708,171.368 262.216 C 171.516 262.805,171.388 263.196,170.997 263.346 C 170.669 263.472,170.400 263.851,170.400 264.187 C 170.400 264.524,170.264 264.800,170.097 264.800 C 169.769 264.800,168.800 267.619,168.800 268.574 C 168.800 268.896,168.521 269.316,168.181 269.507 C 167.840 269.697,167.537 270.291,167.506 270.827 C 167.476 271.362,167.215 272.155,166.926 272.589 C 166.637 273.023,166.400 273.621,166.400 273.918 C 166.400 274.214,166.117 274.740,165.771 275.086 C 165.404 275.453,165.232 276.073,165.358 276.576 C 165.499 277.135,165.260 277.780,164.675 278.418 C 164.181 278.958,163.840 279.715,163.917 280.100 C 163.995 280.485,163.868 280.800,163.635 280.800 C 163.402 280.800,163.008 281.610,162.758 282.600 C 162.509 283.590,162.134 284.400,161.926 284.400 C 161.717 284.400,161.651 284.730,161.779 285.132 C 161.916 285.565,161.688 286.237,161.223 286.774 C 160.303 287.834,158.975 291.108,159.323 291.457 C 159.454 291.588,159.345 291.938,159.081 292.234 C 157.803 293.664,157.626 294.002,157.847 294.579 C 157.978 294.920,157.901 295.200,157.675 295.200 C 157.449 295.200,157.148 295.725,157.007 296.367 C 156.866 297.009,156.392 297.948,155.954 298.453 C 155.443 299.042,155.237 299.694,155.381 300.265 C 155.532 300.867,155.376 301.286,154.902 301.554 C 154.277 301.906,154.389 302.137,155.923 303.660 C 157.215 304.943,157.729 305.238,157.975 304.840 C 158.246 304.402,158.335 304.405,158.487 304.855 C 158.641 305.314,158.774 305.314,159.335 304.851 C 159.884 304.398,160.110 304.393,160.630 304.825 C 161.147 305.254,161.319 305.255,161.582 304.829 C 161.842 304.408,161.938 304.413,162.087 304.855 C 162.239 305.309,162.386 305.304,162.965 304.826 C 163.570 304.327,163.709 304.327,164.024 304.826 C 164.277 305.224,164.390 305.247,164.394 304.900 C 164.397 304.625,164.670 304.400,165.000 304.400 C 165.330 304.400,165.600 304.558,165.600 304.750 C 165.600 305.251,167.747 305.189,168.070 304.678 C 168.252 304.390,168.511 304.382,168.870 304.653 C 169.540 305.161,171.600 305.306,171.600 304.846 C 171.600 304.655,172.050 304.500,172.600 304.500 C 173.150 304.500,173.600 304.657,173.600 304.850 C 173.600 305.393,175.108 305.262,175.336 304.700 C 175.494 304.312,175.625 304.322,175.921 304.745 C 176.244 305.206,176.332 305.206,176.487 304.745 C 176.641 304.286,176.774 304.286,177.335 304.749 C 177.767 305.106,178.000 305.141,178.000 304.849 C 178.000 304.602,178.360 304.400,178.800 304.400 C 179.240 304.400,179.600 304.591,179.600 304.824 C 179.600 305.057,179.814 305.115,180.076 304.953 C 180.808 304.501,183.200 304.433,183.200 304.865 C 183.200 305.075,183.412 305.116,183.670 304.957 C 184.521 304.431,187.733 304.368,188.044 304.871 C 188.258 305.217,188.486 305.229,188.870 304.916 C 189.241 304.613,197.585 304.516,216.732 304.592 L 244.064 304.700 274.432 274.331 L 304.800 243.963 304.800 200.762 L 304.800 157.560 303.460 156.180 C 302.046 154.724,301.270 154.490,300.480 155.280 C 300.107 155.653,300.000 155.653,300.000 155.280 C 300.000 154.619,299.399 154.678,298.802 155.398 M170.860 170.860 L 158.800 182.919 158.800 200.244 L 158.800 217.568 170.824 229.584 L 182.847 241.600 200.244 241.600 L 217.640 241.600 229.620 229.620 L 241.600 217.640 241.600 200.244 L 241.600 182.847 229.584 170.824 L 217.568 158.800 200.244 158.800 L 182.919 158.800 170.860 170.860 M298.283 163.826 C 298.841 164.384,298.914 168.578,298.954 202.745 L 299.000 241.038 270.019 270.019 L 241.039 299.000 202.855 299.106 C 165.289 299.210,164.659 299.199,163.935 298.423 C 163.192 297.625,162.936 296.400,163.513 296.400 C 163.758 296.400,164.888 293.357,164.998 292.400 C 165.010 292.290,165.308 291.750,165.660 291.200 C 166.012 290.650,166.541 289.345,166.837 288.300 C 167.133 287.255,167.491 286.400,167.633 286.400 C 167.774 286.400,168.202 285.410,168.582 284.200 C 168.963 282.990,169.415 282.000,169.587 282.000 C 169.759 282.000,170.011 281.444,170.147 280.763 C 170.283 280.083,170.809 278.688,171.315 277.663 C 171.820 276.639,172.489 274.990,172.800 274.000 C 173.112 273.010,173.488 272.110,173.636 272.000 C 173.784 271.890,174.209 270.904,174.579 269.810 C 174.949 268.715,175.393 267.635,175.567 267.410 C 175.740 267.184,176.222 266.010,176.637 264.800 C 177.053 263.590,177.510 262.510,177.653 262.400 C 177.795 262.290,178.145 261.418,178.431 260.462 C 179.181 257.949,178.675 258.000,202.733 258.000 L 224.614 258.000 239.540 242.900 C 256.272 225.972,258.149 224.000,257.534 224.000 C 257.242 224.000,257.254 223.817,257.570 223.436 C 257.924 223.010,257.925 222.801,257.577 222.586 C 257.236 222.375,257.250 222.216,257.632 221.980 C 258.042 221.727,258.047 221.539,257.658 221.069 C 257.268 220.600,257.273 220.428,257.683 220.239 C 258.092 220.050,258.095 219.951,257.700 219.767 C 257.425 219.638,257.200 219.293,257.200 219.000 C 257.200 218.707,257.425 218.362,257.700 218.233 C 258.095 218.049,258.092 217.950,257.683 217.761 C 257.273 217.572,257.268 217.400,257.658 216.931 C 257.977 216.545,258.008 216.245,257.745 216.070 C 257.289 215.765,257.248 213.818,257.689 213.377 C 257.848 213.218,257.849 212.889,257.692 212.644 C 257.256 211.969,257.290 210.235,257.745 209.930 C 258.004 209.758,257.952 209.424,257.600 209.000 C 257.134 208.438,257.138 208.284,257.626 207.976 C 258.024 207.723,258.047 207.610,257.700 207.606 C 257.425 207.603,257.200 207.330,257.200 207.000 C 257.200 206.670,257.425 206.397,257.700 206.394 C 258.047 206.390,258.024 206.277,257.626 206.024 C 257.138 205.716,257.134 205.562,257.600 205.000 C 257.952 204.576,258.004 204.242,257.745 204.070 C 257.289 203.765,257.248 201.818,257.689 201.377 C 257.848 201.218,257.849 200.889,257.692 200.644 C 257.245 199.952,257.295 198.232,257.771 197.906 C 258.059 197.709,258.036 197.610,257.700 197.606 C 257.425 197.603,257.200 197.240,257.200 196.800 C 257.200 196.360,257.425 195.986,257.700 195.968 C 258.100 195.943,258.100 195.896,257.700 195.735 C 257.425 195.624,257.200 195.278,257.200 194.967 C 257.200 194.655,257.425 194.397,257.700 194.394 C 258.052 194.390,258.068 194.301,257.753 194.094 C 257.457 193.899,257.290 191.542,257.258 187.097 C 257.206 179.788,257.615 178.400,259.823 178.400 C 260.307 178.400,260.926 178.130,261.200 177.800 C 261.474 177.470,262.092 177.200,262.573 177.200 C 263.054 177.200,263.796 176.936,264.224 176.613 C 264.651 176.290,265.383 176.020,265.851 176.013 C 266.319 176.006,266.910 175.749,267.165 175.442 C 267.420 175.135,268.234 174.770,268.974 174.631 C 269.714 174.492,270.540 174.114,270.809 173.789 C 271.078 173.465,271.625 173.200,272.025 173.200 C 272.425 173.200,272.849 173.044,272.968 172.853 C 273.086 172.661,273.906 172.389,274.791 172.248 C 275.676 172.106,276.400 171.827,276.400 171.627 C 276.400 171.427,276.938 171.145,277.595 171.001 C 278.253 170.857,278.894 170.572,279.019 170.369 C 279.145 170.166,279.582 170.000,279.991 170.000 C 280.400 170.000,281.245 169.745,281.868 169.434 C 282.490 169.122,283.450 168.674,284.000 168.437 C 284.550 168.200,285.270 167.842,285.600 167.642 C 285.930 167.441,287.010 167.052,288.000 166.776 C 288.990 166.500,290.250 165.991,290.800 165.645 C 292.046 164.861,294.372 164.014,295.300 164.006 C 295.685 164.003,296.000 163.820,296.000 163.600 C 296.000 162.974,297.588 163.131,298.283 163.826 M225.097 175.297 L 234.800 184.994 234.800 200.194 L 234.800 215.394 225.103 225.097 L 215.406 234.800 200.206 234.800 L 185.006 234.800 175.303 225.103 L 165.600 215.406 165.600 200.242 L 165.600 185.077 175.300 175.350 L 185.000 165.623 200.197 165.612 L 215.394 165.600 225.097 175.297 M286.100 286.152 C 266.221 306.050,258.400 314.128,258.400 314.759 C 258.400 315.805,307.959 365.600,309.000 365.600 C 309.352 365.600,321.340 353.900,335.640 339.600 C 349.940 325.300,361.811 313.600,362.020 313.600 C 362.229 313.600,362.400 313.442,362.400 313.248 C 362.400 313.055,363.120 312.155,364.000 311.248 C 364.880 310.341,365.600 309.429,365.600 309.220 C 365.600 308.522,315.169 258.400,314.479 258.413 C 314.106 258.420,301.335 270.903,286.100 286.152 M336.601 287.201 L 357.398 308.001 332.537 332.863 L 307.675 357.724 286.838 336.880 C 275.377 325.415,266.000 315.910,266.000 315.756 C 266.000 315.321,314.950 266.428,315.401 266.413 C 315.622 266.406,325.162 275.760,336.601 287.201 " stroke="none" fill="#040404" fill-rule="evenodd"></path><path id="path2" d="M116.198 19.602 L 109.806 26.003 132.802 49.002 L 155.797 72.000 204.599 72.000 L 253.402 72.000 290.901 109.501 L 328.400 147.002 328.400 196.002 L 328.400 245.003 351.375 267.975 L 374.351 290.948 380.975 284.338 L 387.600 277.728 387.600 200.363 L 387.600 122.999 332.699 68.099 L 277.799 13.200 200.195 13.200 L 122.591 13.200 116.198 19.602 M109.999 109.100 L 85.400 133.800 110.100 109.201 C 133.060 86.335,134.980 84.400,134.699 84.400 C 134.643 84.400,123.528 95.515,109.999 109.100 M43.200 92.396 C 43.200 92.726,84.756 134.185,84.884 133.983 C 84.948 133.882,75.595 124.438,64.100 112.995 C 52.605 101.552,43.200 92.283,43.200 92.396 M234.484 96.739 C 234.153 96.950,234.408 97.067,235.200 97.067 C 235.992 97.067,236.247 96.950,235.916 96.739 C 235.632 96.559,235.310 96.412,235.200 96.412 C 235.090 96.412,234.768 96.559,234.484 96.739 M131.206 131.497 L 102.200 160.594 131.387 131.597 C 147.439 115.649,160.654 102.555,160.753 102.500 C 160.852 102.445,160.771 102.400,160.572 102.400 C 160.374 102.400,147.159 115.494,131.206 131.497 M236.789 105.621 C 236.547 106.072,236.406 106.714,236.475 107.046 C 236.544 107.379,236.798 107.009,237.040 106.225 C 237.535 104.623,237.442 104.400,236.789 105.621 M234.788 110.422 C 234.546 110.874,234.418 111.455,234.504 111.711 C 234.589 111.968,234.862 111.598,235.109 110.889 C 235.617 109.432,235.449 109.188,234.788 110.422 M19.495 116.305 L 13.200 122.609 13.200 200.205 L 13.200 277.801 68.101 332.701 L 123.001 387.600 200.355 387.600 L 277.710 387.600 284.138 381.185 L 290.567 374.770 267.385 351.585 L 244.203 328.400 195.600 328.400 L 146.998 328.400 109.499 290.899 L 72.000 253.398 72.000 204.598 L 72.000 155.797 49.099 132.899 C 36.503 120.304,26.106 110.000,25.994 110.000 C 25.882 110.000,22.958 112.837,19.495 116.305 M232.563 115.784 C 232.325 116.544,232.263 117.085,232.425 116.984 C 232.849 116.723,233.614 114.400,233.277 114.400 C 233.122 114.400,232.801 115.023,232.563 115.784 M230.789 120.021 C 230.547 120.472,230.406 121.114,230.475 121.446 C 230.544 121.779,230.798 121.409,231.040 120.625 C 231.535 119.023,231.442 118.800,230.789 120.021 M228.570 125.819 C 228.424 126.599,228.416 127.349,228.552 127.485 C 228.688 127.622,228.800 127.331,228.800 126.840 C 228.800 126.349,228.986 125.599,229.214 125.174 C 229.481 124.675,229.487 124.400,229.232 124.400 C 229.014 124.400,228.716 125.038,228.570 125.819 M226.777 129.861 C 226.555 130.444,226.432 131.097,226.504 131.312 C 226.576 131.527,226.835 131.050,227.080 130.251 C 227.594 128.574,227.374 128.290,226.777 129.861 M225.280 133.680 C 225.016 133.944,224.800 134.538,224.800 135.000 C 224.800 135.462,224.575 136.092,224.300 136.401 C 223.875 136.878,223.904 136.882,224.500 136.432 C 224.885 136.140,225.200 135.510,225.200 135.031 C 225.200 134.552,225.416 133.944,225.680 133.680 C 225.944 133.416,226.070 133.200,225.960 133.200 C 225.850 133.200,225.544 133.416,225.280 133.680 M222.880 139.680 C 222.616 139.944,222.425 140.619,222.454 141.180 L 222.509 142.200 222.693 141.200 C 222.794 140.650,223.061 139.975,223.287 139.700 C 223.811 139.062,223.513 139.047,222.880 139.680 M298.539 202.761 C 298.572 224.110,298.732 241.088,298.892 240.489 C 299.218 239.274,299.017 164.483,298.686 164.153 C 298.571 164.038,298.505 181.411,298.539 202.761 M292.529 164.678 C 292.050 164.772,291.429 165.152,291.148 165.524 C 290.717 166.096,290.725 166.123,291.199 165.700 C 291.508 165.425,292.174 165.200,292.680 165.200 C 293.186 165.200,293.600 165.020,293.600 164.800 C 293.600 164.580,293.555 164.425,293.500 164.454 C 293.445 164.484,293.008 164.585,292.529 164.678 M175.300 175.350 L 165.600 185.077 165.600 200.242 L 165.600 215.406 175.303 225.103 L 185.006 234.800 200.206 234.800 L 215.406 234.800 225.103 225.097 L 234.800 215.394 234.800 200.194 L 234.800 184.994 225.097 175.297 L 215.394 165.600 200.197 165.612 L 185.000 165.623 175.300 175.350 M288.000 166.800 C 287.670 167.013,287.017 167.191,286.549 167.194 C 286.081 167.197,285.460 167.515,285.168 167.900 C 284.718 168.496,284.722 168.525,285.199 168.100 C 285.508 167.825,286.140 167.600,286.604 167.600 C 287.067 167.600,287.796 167.336,288.224 167.013 C 289.093 166.355,288.929 166.200,288.000 166.800 M282.920 168.842 C 282.216 169.046,281.544 169.368,281.427 169.557 C 281.194 169.934,283.817 169.117,284.259 168.674 C 284.575 168.359,284.607 168.355,282.920 168.842 M279.038 170.300 C 278.876 170.465,278.171 170.827,277.471 171.104 L 276.200 171.607 277.400 171.377 C 278.399 171.186,280.252 170.000,279.552 170.000 C 279.432 170.000,279.200 170.135,279.038 170.300 M273.016 172.773 C 272.871 173.008,272.425 173.200,272.025 173.200 C 271.625 173.200,271.060 173.515,270.768 173.900 C 270.318 174.496,270.322 174.525,270.799 174.100 C 271.108 173.825,271.763 173.600,272.256 173.600 C 273.128 173.600,273.883 172.950,273.480 172.547 C 273.370 172.437,273.161 172.539,273.016 172.773 M268.529 174.678 C 268.050 174.772,267.429 175.152,267.148 175.524 C 266.717 176.096,266.725 176.123,267.199 175.700 C 267.508 175.425,268.174 175.200,268.680 175.200 C 269.186 175.200,269.600 175.020,269.600 174.800 C 269.600 174.580,269.555 174.425,269.500 174.454 C 269.445 174.484,269.008 174.585,268.529 174.678 M264.224 176.613 C 263.796 176.936,263.054 177.200,262.573 177.200 C 262.092 177.200,261.460 177.515,261.168 177.900 C 260.718 178.496,260.722 178.525,261.199 178.100 C 261.508 177.825,262.154 177.600,262.636 177.600 C 263.117 177.600,263.936 177.246,264.456 176.813 C 265.551 175.901,265.371 175.745,264.224 176.613 M142.839 195.415 C 142.886 205.873,143.031 214.496,143.162 214.577 C 143.293 214.658,143.400 206.101,143.400 195.563 C 143.400 185.024,143.255 176.401,143.077 176.401 C 142.900 176.400,142.793 184.957,142.839 195.415 M257.258 186.953 C 257.284 190.844,257.397 193.936,257.509 193.824 C 257.771 193.563,257.675 180.342,257.410 180.077 C 257.301 179.967,257.232 183.062,257.258 186.953 M257.352 199.152 C 257.385 199.808,257.515 200.448,257.642 200.575 C 257.768 200.701,257.839 200.263,257.800 199.600 C 257.761 198.937,257.630 198.297,257.510 198.177 C 257.390 198.056,257.319 198.495,257.352 199.152 M257.556 201.300 C 257.380 201.703,257.338 203.996,257.510 203.823 C 257.749 203.584,257.955 201.200,257.736 201.200 C 257.661 201.200,257.580 201.245,257.556 201.300 M257.352 211.152 C 257.385 211.808,257.515 212.448,257.642 212.575 C 257.768 212.701,257.839 212.263,257.800 211.600 C 257.761 210.937,257.630 210.297,257.510 210.177 C 257.390 210.056,257.319 210.495,257.352 211.152 M257.556 213.300 C 257.380 213.703,257.338 215.996,257.510 215.823 C 257.749 215.584,257.955 213.200,257.736 213.200 C 257.661 213.200,257.580 213.245,257.556 213.300 M143.152 215.300 C 143.125 215.355,143.054 216.706,142.993 218.303 C 142.862 221.768,142.661 222.400,141.689 222.400 C 141.284 222.400,140.604 222.668,140.176 222.995 C 139.470 223.535,139.527 223.549,140.800 223.142 C 143.078 222.415,143.317 221.977,143.381 218.424 C 143.431 215.654,143.372 214.845,143.152 215.300 M135.700 224.812 C 134.315 225.369,134.634 225.614,136.100 225.120 C 136.815 224.879,137.475 224.618,137.567 224.541 C 137.892 224.266,136.586 224.456,135.700 224.812 M131.319 226.562 C 129.555 227.204,129.194 227.661,130.819 227.195 C 131.549 226.985,132.329 226.631,132.553 226.407 C 133.019 225.941,133.028 225.940,131.319 226.562 M125.776 229.030 C 125.349 229.376,125.239 229.537,125.531 229.387 C 125.824 229.237,126.544 228.969,127.131 228.791 C 127.989 228.533,128.037 228.462,127.376 228.434 C 126.924 228.415,126.204 228.683,125.776 229.030 M239.198 243.500 L 224.600 258.200 239.300 243.602 C 247.385 235.573,254.000 228.958,254.000 228.902 C 254.000 228.620,252.765 229.838,239.198 243.500 M121.700 230.539 C 120.985 230.774,120.400 231.099,120.400 231.262 C 120.400 231.640,122.728 230.841,123.024 230.361 C 123.147 230.162,123.192 230.025,123.124 230.056 C 123.056 230.087,122.415 230.304,121.700 230.539 M116.176 232.995 C 115.466 233.538,115.511 233.552,116.700 233.155 C 118.057 232.703,118.368 232.400,117.476 232.400 C 117.189 232.400,116.604 232.668,116.176 232.995 M111.376 235.030 C 110.949 235.376,110.839 235.537,111.131 235.387 C 111.424 235.237,112.144 234.969,112.731 234.791 C 113.589 234.533,113.637 234.462,112.976 234.434 C 112.524 234.415,111.804 234.683,111.376 235.030 M107.533 236.542 C 106.726 236.794,105.939 237.126,105.785 237.281 C 105.370 237.697,108.535 236.787,108.980 236.363 C 109.417 235.945,109.462 235.940,107.533 236.542 M178.926 259.100 C 178.789 259.485,178.601 259.980,178.509 260.200 C 178.416 260.420,178.624 260.251,178.970 259.824 C 179.599 259.048,179.789 258.400,179.387 258.400 C 179.271 258.400,179.063 258.715,178.926 259.100 M176.928 263.900 C 176.514 265.228,176.525 265.311,177.030 264.624 C 177.508 263.973,177.839 262.400,177.498 262.400 C 177.442 262.400,177.185 263.075,176.928 263.900 M336.199 287.100 L 356.997 308.000 332.418 332.582 C 313.214 351.788,307.723 357.068,307.310 356.725 C 307.019 356.484,306.691 356.376,306.581 356.486 C 306.471 356.596,306.667 356.924,307.018 357.215 C 307.576 357.678,310.763 354.636,332.527 332.872 L 357.399 308.000 336.400 287.100 L 315.401 266.200 336.199 287.100 M175.392 267.613 C 175.005 268.239,174.387 270.546,174.686 270.247 C 174.989 269.945,175.970 267.200,175.776 267.200 C 175.705 267.200,175.532 267.386,175.392 267.613 M172.928 273.500 C 172.514 274.828,172.525 274.911,173.030 274.224 C 173.508 273.573,173.839 272.000,173.498 272.000 C 173.442 272.000,173.185 272.675,172.928 273.500 M171.178 277.858 C 170.957 278.439,170.681 279.069,170.564 279.258 C 170.448 279.446,170.513 279.600,170.709 279.600 C 170.905 279.600,171.259 278.970,171.495 278.200 C 171.997 276.564,171.765 276.314,171.178 277.858 M169.200 282.103 C 169.200 282.159,169.023 282.822,168.807 283.576 C 168.587 284.342,168.575 284.782,168.779 284.573 C 169.231 284.110,169.776 282.000,169.443 282.000 C 169.310 282.000,169.200 282.046,169.200 282.103 M166.928 287.900 C 166.514 289.228,166.525 289.311,167.030 288.624 C 167.508 287.973,167.839 286.400,167.498 286.400 C 167.442 286.400,167.185 287.075,166.928 287.900 M165.200 291.800 C 164.926 292.130,164.810 292.400,164.941 292.400 C 165.073 292.400,164.993 292.895,164.765 293.500 C 164.437 294.369,164.453 294.498,164.841 294.114 C 165.111 293.847,165.356 293.304,165.385 292.907 C 165.414 292.510,165.575 291.964,165.743 291.693 C 166.168 291.004,165.800 291.077,165.200 291.800 M164.262 298.900 C 164.493 299.274,239.943 299.246,240.885 298.872 C 241.262 298.722,224.134 298.600,202.824 298.600 C 181.513 298.600,164.160 298.735,164.262 298.900 M172.178 304.891 C 172.634 305.147,173.013 305.147,173.269 304.891 C 173.524 304.636,173.280 304.500,172.569 304.500 C 171.648 304.500,171.587 304.561,172.178 304.891 M189.905 304.683 C 190.402 304.779,191.122 304.775,191.505 304.675 C 191.887 304.575,191.480 304.496,190.600 304.501 C 189.720 304.505,189.407 304.587,189.905 304.683 M198.705 304.683 C 199.202 304.779,199.922 304.775,200.305 304.675 C 200.687 304.575,200.280 304.496,199.400 304.501 C 198.520 304.505,198.207 304.587,198.705 304.683 " stroke="none" fill="#043c4c" fill-rule="evenodd"></path></g></svg>