<svg version="1.1" id="Layer_1" xmlns="http://www.w3.org/2000/svg" xmlns:xlink="http://www.w3.org/1999/xlink" x="0px" y="0px"
	 width="100%" viewBox="0 0 800 800" enable-background="new 0 0 800 800" xml:space="preserve">
<path fill="#003A4C" opacity="1.000000" stroke="none" 
	d="
M233.251434,22.248577 
	C238.266174,15.190886 244.769302,13.797496 252.914352,13.819754 
	C353.897858,14.095705 454.882416,14.028767 555.866516,13.909425 
	C560.567932,13.903869 563.889038,15.240516 567.232178,18.592176 
	C639.254333,90.797089 711.371338,162.907455 783.566345,234.939545 
	C786.774231,238.140198 788.093933,241.335022 788.088806,245.867111 
	C787.973206,348.684265 787.978271,451.501648 788.075256,554.318848 
	C788.079285,558.630188 786.949951,561.797424 783.791992,564.844177 
	C773.479980,574.792908 763.373047,584.959412 753.375549,595.225586 
	C750.480896,598.198120 748.541443,598.150818 745.623596,595.218872 
	C713.075012,562.513550 680.371338,529.962219 647.917297,497.163666 
	C646.028809,495.255066 645.126343,491.576355 645.118896,488.717896 
	C644.962219,428.227722 644.957825,367.736969 645.082886,307.246674 
	C645.092529,302.592224 643.883484,299.212280 640.494690,295.840729 
	C595.604065,251.178955 550.827698,206.402069 506.165344,161.512131 
	C502.796112,158.125748 499.420532,156.906586 494.762421,156.916351 
	C434.438751,157.042709 374.114655,156.954010 313.791016,157.091873 
	C309.240448,157.102264 306.067078,155.716049 302.885010,152.512924 
	C271.292938,120.711639 239.553482,89.056824 207.860153,57.356148 
	C203.014343,52.509235 203.018143,52.492176 207.917694,47.586132 
	C216.273926,39.218842 224.639450,30.860807 233.251434,22.248577 
z"/>
<path fill="#003A4C" opacity="1.000000" stroke="none" 
	d="
M82.250000,231.750000 
	C105.947884,255.448257 129.347549,278.945160 152.904236,302.283630 
	C155.872314,305.224243 157.088348,308.178131 157.080276,312.349457 
	C156.962906,373.004791 157.036102,433.660431 156.923645,494.315765 
	C156.915665,498.626434 158.106094,501.746613 161.208847,504.836578 
	C206.194519,549.636597 251.087585,594.529846 295.888550,639.514587 
	C299.074493,642.713623 302.244598,644.102234 306.794250,644.091858 
	C367.116211,643.954102 427.438660,644.042603 487.760651,643.916504 
	C492.417755,643.906738 495.799957,645.116455 499.165192,648.509521 
	C530.730408,680.335510 562.481018,711.977539 594.173401,743.677429 
	C598.986206,748.491516 598.981995,748.509521 594.048828,753.447083 
	C583.920105,763.585022 573.882996,773.818481 563.555420,783.749817 
	C561.745789,785.489990 558.703857,786.861511 556.228821,786.865173 
	C452.081482,787.018616 347.933868,787.018616 243.786545,786.865784 
	C241.310013,786.862122 238.214996,785.527771 236.450897,783.768677 
	C163.291885,710.819397 90.235039,637.767639 17.296494,564.598022 
	C15.448527,562.744202 14.139637,559.429810 14.135642,556.794250 
	C13.978241,452.980164 13.975039,349.165833 14.145843,245.351807 
	C14.150399,242.583008 15.628201,239.178421 17.557856,237.158081 
	C27.568373,226.677109 38.080582,216.676178 48.128227,206.229324 
	C51.544754,202.677094 53.726025,202.942841 56.979858,206.351242 
	C65.143448,214.902634 73.638115,223.137924 82.250000,231.750000 
z"/>
<path fill="#1E95CC" opacity="1.000000" stroke="none" 
	d="
M205.000000,430.000000 
	C205.000000,395.344421 205.042175,361.188721 204.931656,327.033478 
	C204.921158,323.789825 205.857635,321.532562 208.160889,319.238434 
	C245.344894,282.201996 282.418488,245.054688 319.624176,208.040176 
	C321.180939,206.491409 323.776489,205.132706 325.892822,205.125809 
	C375.542847,204.963882 425.193481,205.000092 474.844025,205.005783 
	C475.672058,205.005875 476.500092,205.079071 477.908783,205.145554 
	C474.552399,213.534836 471.306061,221.682053 468.034668,229.819199 
	C460.992126,247.336487 453.935028,264.847931 446.888153,282.363525 
	C445.659790,285.416718 444.085876,287.159851 440.123291,287.124847 
	C413.134155,286.886261 386.141754,287.046326 359.150940,286.938538 
	C355.949646,286.925751 353.638367,287.731628 351.317993,290.074951 
	C330.920593,310.673920 310.338715,331.090393 289.975494,351.722809 
	C288.355286,353.364441 287.141602,356.212219 287.125275,358.509277 
	C286.930939,385.832367 286.893677,413.158234 287.128204,440.480682 
	C287.159149,444.081390 285.652893,445.440125 282.910797,446.552704 
	C258.173706,456.589478 233.442749,466.641327 208.696808,476.656219 
	C207.649124,477.080231 206.472443,477.185394 205.000000,477.519928 
	C205.000000,461.728638 205.000000,446.114319 205.000000,430.000000 
z"/>
<path fill="#1E95CC" opacity="1.000000" stroke="none" 
	d="
M325.166687,594.013367 
	C327.140411,589.036438 329.012787,584.016174 331.116699,579.094910 
	C333.168793,574.294861 335.592926,569.652527 337.600739,564.835449 
	C339.298370,560.762512 340.553223,556.507263 342.151520,552.389954 
	C343.924347,547.823059 345.892151,543.332336 347.723999,538.787781 
	C349.543945,534.272949 351.291840,529.729004 353.088165,525.204529 
	C354.141266,522.551941 355.227173,519.912415 356.991089,517.260742 
	C359.153107,517.497314 360.622009,517.949890 362.091614,517.952087 
	C389.715302,517.993469 417.339905,518.075500 444.961517,517.830505 
	C447.633331,517.806763 450.924896,516.335571 452.850037,514.440491 
	C473.247040,494.362030 493.502594,474.137207 513.555725,453.715698 
	C515.795837,451.434418 517.757202,447.703796 517.795166,444.620026 
	C518.124634,417.832336 518.037781,391.038544 517.863892,364.247925 
	C517.852478,362.492737 516.106018,360.748871 515.166626,358.999725 
	C516.604431,357.740204 517.837585,355.980286 519.510681,355.296326 
	C543.907349,345.322937 568.360779,335.488556 592.810059,325.644226 
	C594.011292,325.160492 595.298279,324.889648 597.000000,324.384827 
	C597.000000,326.411163 597.000000,328.170410 597.000000,329.929657 
	C597.000000,378.061279 596.968140,426.192932 597.065430,474.324371 
	C597.072632,477.868500 596.224548,480.437225 593.612915,483.034882 
	C556.536133,519.912964 519.607910,556.940430 482.524963,593.812256 
	C480.870361,595.457397 478.085999,596.860474 475.822815,596.867920 
	C426.525085,597.031616 377.226685,596.980957 327.384003,596.626709 
	C326.281952,595.525818 325.724304,594.769592 325.166687,594.013367 
z"/>
<path fill="#1E95CC" opacity="1.000000" stroke="none" 
	d="
M260.250000,195.250000 
	C232.186340,223.311081 204.314194,251.064240 176.636475,279.009949 
	C173.349396,282.328857 171.612350,282.286011 168.351135,278.994476 
	C140.433609,250.817093 112.328018,222.826050 84.278679,194.779266 
	C81.980820,192.481613 79.849808,189.979279 77.344086,187.936615 
	C74.004570,185.214249 75.040451,183.352524 77.647224,180.756332 
	C112.128609,146.414474 146.545395,112.007469 180.870346,77.509323 
	C183.631195,74.734550 185.236572,74.587799 188.075546,77.444992 
	C218.147995,107.710434 248.362000,137.835175 278.495544,168.040054 
	C279.955566,169.503540 281.030060,171.351639 282.488159,173.292191 
	C274.959839,180.724518 267.729919,187.862244 260.250000,195.250000 
z"/>
<path fill="#1E95CC" opacity="1.000000" stroke="none" 
	d="
M704.750000,594.250000 
	C711.597717,601.098450 718.106628,607.789429 724.839050,614.247437 
	C727.345825,616.652039 727.381165,618.218140 724.875610,620.713684 
	C690.048645,655.402039 655.295959,690.165039 620.591675,724.976135 
	C618.336365,727.238342 616.866089,727.449097 614.499695,725.072998 
	C583.693359,694.140381 552.824097,663.270264 521.889648,632.465820 
	C519.473022,630.059448 519.841187,628.586975 522.061035,626.373596 
	C556.869629,591.666748 591.648987,556.930298 626.303589,522.069885 
	C629.291565,519.064209 630.828003,520.256348 633.126404,522.564026 
	C656.880066,546.413391 680.699097,570.197632 704.750000,594.250000 
z"/>
<path fill="#003A4C" opacity="1.000000" stroke="none" 
	d="
M410.999481,470.000000 
	C399.175812,469.999634 387.845001,470.213898 376.533051,469.847321 
	C373.717896,469.756073 370.295288,468.485626 368.292114,466.566833 
	C357.110565,455.856628 346.171814,444.884216 335.431641,433.730316 
	C333.592041,431.819824 332.197388,428.617340 332.150970,425.984344 
	C331.857697,409.336823 331.858185,392.679047 332.150543,376.031494 
	C332.196808,373.397125 333.582458,370.190948 335.420929,368.281372 
	C346.160278,357.126709 357.115540,346.172089 368.269470,335.431915 
	C370.179962,333.592285 373.382355,332.197449 376.015320,332.151031 
	C392.662872,331.857788 409.320618,331.858215 425.968201,332.150513 
	C428.602600,332.196777 431.808838,333.582245 433.718414,335.420746 
	C444.873077,346.160065 455.827698,357.115326 466.567871,368.269226 
	C468.407532,370.179718 469.802551,373.382050 469.848907,376.014984 
	C470.142242,392.662537 470.141754,409.320282 469.849457,425.967865 
	C469.803192,428.602325 468.416534,431.806091 466.579254,433.718079 
	C456.196747,444.522614 445.393066,454.921326 434.949860,465.669128 
	C431.942230,468.764496 428.880615,470.419800 424.483429,470.073578 
	C420.180145,469.734711 415.829285,469.999908 410.999481,470.000000 
z"/>
<path fill="#1E95CC" opacity="1.000000" stroke="none" 
	d="
M515.097595,359.463928 
	C516.106018,360.748871 517.852478,362.492737 517.863892,364.247925 
	C518.037781,391.038544 518.124634,417.832336 517.795166,444.620026 
	C517.757202,447.703796 515.795837,451.434418 513.555725,453.715698 
	C493.502594,474.137207 473.247040,494.362030 452.850037,514.440491 
	C450.924896,516.335571 447.633331,517.806763 444.961517,517.830505 
	C417.339905,518.075500 389.715302,517.993469 362.091614,517.952087 
	C360.622009,517.949890 359.153107,517.497314 357.288696,517.102417 
	C358.461121,516.300232 360.026306,515.090027 361.596649,515.083374 
	C388.740875,514.967590 415.886078,514.943909 443.030212,515.073425 
	C446.297241,515.088989 448.531067,514.088745 450.803925,511.797211 
	C471.091217,491.342834 491.454102,470.962708 511.919861,450.687012 
	C514.258789,448.369781 515.073425,446.063416 515.062073,442.860687 
	C514.963684,415.216797 515.019043,387.572388 515.097595,359.463928 
z"/>
<path fill="#1E95CC" opacity="1.000000" stroke="none" 
	d="
M325.091675,594.349976 
	C325.724304,594.769592 326.281952,595.525818 326.919861,596.557739 
	C325.110718,597.252502 323.819763,597.118713 325.091675,594.349976 
z"/>
</svg>